<svg width="39" height="39" viewBox="0 0 39 39" fill="none" xmlns="http://www.w3.org/2000/svg">
<path fill-rule="evenodd" clip-rule="evenodd" d="M11.2608 0.0680312C10.6411 0.257159 10.1133 0.725559 9.82243 1.34415C9.67057 1.66724 9.62305 1.91344 9.59079 2.5443L9.55029 3.33792H7.74667C6.36309 3.33792 5.83734 3.36542 5.48854 3.45618C4.12327 3.81127 3.08123 4.81406 2.70238 6.13757C2.56174 6.62891 2.5551 6.96251 2.5551 13.5353V20.4184L2.77805 20.6411C3.16887 21.0316 3.82161 20.8974 3.99856 20.3903C4.05348 20.233 4.08055 18.6721 4.08055 15.6709V11.1865H17.8909C27.9122 11.1865 31.747 11.1632 31.8679 11.1014C32.4417 10.8082 32.4417 10.0408 31.8679 9.74761C31.747 9.68582 27.9122 9.6625 17.8909 9.6625H4.08055V8.2176C4.08055 6.95725 4.10016 6.72035 4.23371 6.36366C4.4414 5.80908 4.83603 5.37131 5.3601 5.11421L5.79669 4.90001L7.68443 4.87616L9.57218 4.85224L9.57378 5.33336C9.57737 6.41585 9.89596 7.17724 10.5341 7.62819C11.0117 7.96568 11.2805 8.04988 11.8985 8.05575C12.5535 8.062 13.0742 7.84521 13.529 7.37704C13.9677 6.9254 14.1485 6.39056 14.1485 5.54482V4.86191H20.5554H26.9623L26.9639 5.33816C26.9675 6.41578 27.2872 7.17801 27.9243 7.62819C28.4019 7.96568 28.6706 8.04988 29.2886 8.05575C29.9437 8.062 30.4644 7.84521 30.9191 7.37704C31.3587 6.92457 31.5387 6.39094 31.5387 5.54047V4.85307L33.6553 4.87654C35.6324 4.89849 35.7952 4.91083 36.1264 5.06377C36.5797 5.27309 37.0764 5.7693 37.2859 6.22216L37.4498 6.57641L37.4696 21.4748L37.4895 36.3733L37.3171 36.7142C36.8299 37.6777 35.4843 37.7202 34.9369 36.7894C34.7997 36.5559 34.7755 36.3555 34.7421 35.1719L34.704 33.821L34.4926 33.6098L34.2811 33.3987L29.7637 33.3763C27.279 33.3641 25.1309 33.3749 24.99 33.4004C24.2921 33.5269 24.1296 34.4496 24.7489 34.7696C24.9395 34.868 25.5663 34.8846 29.0942 34.8846H33.2167L33.2176 35.6657C33.2184 36.3545 33.307 36.9135 33.4833 37.3421C33.5354 37.4688 32.7717 37.4753 18.0657 37.4737C3.21501 37.4721 2.58096 37.4664 2.28815 37.3321C1.6782 37.0523 1.48729 36.642 1.48729 35.611V34.8846H10.143H18.7987L19.0468 34.6633C19.2561 34.4764 19.2934 34.3922 19.2863 34.1221C19.2801 33.885 19.2258 33.7502 19.076 33.6005L18.8741 33.3987L14.9359 33.3606C11.4206 33.3266 11.0127 33.3103 11.1372 33.2082C11.448 32.9535 12.2047 31.918 12.4459 31.4175C12.9585 30.3537 13.043 29.9518 13.0386 28.5981C13.035 27.4821 13.0173 27.3274 12.8292 26.7694C11.986 24.266 9.83303 22.5869 7.24587 22.4145C3.92953 22.1936 0.979004 24.7003 0.662626 28.0076C0.495055 29.7591 1.02378 31.4109 2.17969 32.7473L2.70078 33.3497L1.56165 33.3743C0.432435 33.3985 0.420689 33.4006 0.211245 33.6101L-3.05176e-05 33.8215V35.2484C-3.05176e-05 36.4129 0.0246055 36.7454 0.133752 37.0563C0.317416 37.5796 0.763687 38.1443 1.26121 38.4832C2.07596 39.0381 0.709 38.9994 19.4876 38.9994C38.2662 38.9994 36.8993 39.0381 37.714 38.4832C38.1874 38.1608 38.6435 37.5987 38.841 37.0944C38.9673 36.7719 38.9765 35.864 38.9956 21.7783C39.0095 11.4565 38.9907 6.68385 38.935 6.41486C38.715 5.35302 37.9026 4.2735 36.9691 3.80274C36.1282 3.37861 35.8321 3.33792 33.5886 3.33792H31.5518L31.5262 2.48067C31.5047 1.76287 31.4716 1.56764 31.3225 1.28052C30.8902 0.448573 30.198 0.0293979 29.2505 0.0258166C28.5915 0.023302 28.1428 0.205648 27.6749 0.6662C27.2162 1.11761 27.0278 1.62746 26.9809 2.5443L26.9404 3.33792H20.551H14.1617L14.136 2.48067C14.1073 1.51788 13.9852 1.17689 13.4828 0.656598C12.9851 0.140954 11.9339 -0.13748 11.2608 0.0680312ZM12.1895 1.59424C12.6145 1.81141 12.6196 1.83968 12.6214 4.0369L12.6231 6.06945L12.4256 6.30384C12.0342 6.76866 11.2692 6.53816 11.1451 5.91812C11.119 5.78774 11.0977 4.90527 11.0978 3.95704C11.0979 2.46794 11.116 2.19682 11.2313 1.96739C11.4332 1.56505 11.83 1.41052 12.1895 1.59424ZM29.5797 1.59424C30.0047 1.81141 30.0097 1.83968 30.0116 4.0369L30.0132 6.06945L29.8158 6.30384C29.4243 6.76866 28.6594 6.53816 28.5352 5.91812C28.5091 5.78774 28.4879 4.90527 28.4879 3.95704C28.488 2.46794 28.5062 2.19682 28.6214 1.96739C28.8234 1.56505 29.2202 1.41052 29.5797 1.59424ZM34.8565 9.73451C34.402 9.92044 34.2576 10.5667 34.5914 10.9217C35.0568 11.4166 35.8829 11.0986 35.8829 10.4245C35.8829 9.89117 35.3498 9.53281 34.8565 9.73451ZM9.3574 15.3441C8.79839 15.4944 8.33931 15.7795 7.93758 16.2259C7.4515 16.7661 7.25319 17.315 7.25319 18.1207C7.25319 18.9434 7.45439 19.4852 7.96885 20.0475C9.09227 21.2756 10.9493 21.3169 12.1273 20.14C13.708 18.5608 12.9786 15.9015 10.8099 15.3372C10.2817 15.1997 9.88741 15.2016 9.3574 15.3441ZM16.5699 15.303C13.9047 15.9751 13.5548 19.5632 16.04 20.7355C16.4932 20.9491 16.6247 20.976 17.1994 20.9718C17.6833 20.9682 17.9597 20.9233 18.289 20.7947C18.9052 20.554 19.5546 19.9374 19.8384 19.3233C20.0334 18.9013 20.0597 18.7587 20.0597 18.1207C20.0597 17.4827 20.0334 17.34 19.8384 16.9181C19.5508 16.2961 18.9025 15.6834 18.2891 15.4541C17.7867 15.2664 16.9922 15.1965 16.5699 15.303ZM23.6445 15.3278C22.656 15.5845 21.8666 16.3278 21.5798 17.2716C21.3559 18.0086 21.4792 18.9946 21.8732 19.6175C22.8763 21.2036 25.0549 21.462 26.3675 20.1507C27.7768 18.7427 27.3574 16.3621 25.5515 15.5191C24.9959 15.2598 24.21 15.1809 23.6445 15.3278ZM30.7137 15.3441C30.1547 15.4944 29.6956 15.7795 29.2939 16.2259C28.8078 16.7661 28.6095 17.315 28.6095 18.1207C28.6095 18.9434 28.8107 19.4852 29.3252 20.0475C30.4486 21.2756 32.3056 21.3169 33.4836 20.14C35.0643 18.5608 34.3349 15.9015 32.1663 15.3372C31.6381 15.1997 31.2437 15.2016 30.7137 15.3441ZM10.6972 16.9107C11.3684 17.2353 11.6484 18.0278 11.3265 18.692C10.9873 19.3921 10.1729 19.6742 9.49652 19.3258C8.49262 18.8088 8.49102 17.4266 9.49362 16.9205C9.91846 16.7061 10.2683 16.7033 10.6972 16.9107ZM17.7803 16.8948C17.953 16.9732 18.1933 17.167 18.3142 17.3254C18.5058 17.5762 18.5342 17.6791 18.5342 18.1207C18.5342 18.5623 18.5058 18.6651 18.3142 18.916C17.9049 19.4522 17.2172 19.6251 16.6279 19.3401C15.6169 18.8512 15.6132 17.4016 16.6217 16.9029C17.0072 16.7123 17.3723 16.7098 17.7803 16.8948ZM24.8027 16.8302C25.3106 17.0219 25.6833 17.568 25.6833 18.1207C25.6833 18.5479 25.5345 18.8575 25.1795 19.1689C24.6998 19.5897 24.0058 19.5908 23.4967 19.1716C22.8251 18.6185 22.8187 17.6134 23.4835 17.0825C23.8927 16.7556 24.3657 16.6652 24.8027 16.8302ZM32.0535 16.9107C32.7247 17.2353 33.0047 18.0278 32.6829 18.692C32.3437 19.3921 31.5292 19.6742 30.8528 19.3258C29.8489 18.8088 29.8473 17.4266 30.8499 16.9205C31.2748 16.7061 31.6246 16.7033 32.0535 16.9107ZM16.5699 23.2278C13.9047 23.8999 13.5548 27.488 16.04 28.6603C16.4932 28.8739 16.6247 28.9007 17.1994 28.8965C17.6833 28.893 17.9597 28.8481 18.289 28.7195C18.9052 28.4787 19.5546 27.8621 19.8384 27.248C20.0334 26.8261 20.0597 26.6835 20.0597 26.0455C20.0597 25.4074 20.0334 25.2648 19.8384 24.8429C19.5508 24.2208 18.9025 23.6082 18.2891 23.3789C17.7867 23.1912 16.9922 23.1213 16.5699 23.2278ZM23.6445 23.2526C22.656 23.5093 21.8666 24.2526 21.5798 25.1964C21.3559 25.9334 21.4792 26.9194 21.8732 27.5422C22.8763 29.1283 25.0549 29.3868 26.3675 28.0755C27.7768 26.6675 27.3574 24.2869 25.5515 23.4439C24.9959 23.1845 24.21 23.1057 23.6445 23.2526ZM30.7137 23.2689C30.1547 23.4192 29.6956 23.7043 29.2939 24.1507C28.8078 24.6909 28.6095 25.2398 28.6095 26.0455C28.6095 26.8682 28.8107 27.41 29.3252 27.9723C30.4486 29.2004 32.3056 29.2417 33.4836 28.0648C35.0643 26.4856 34.3349 23.8263 32.1663 23.262C31.6381 23.1245 31.2437 23.1264 30.7137 23.2689ZM7.85605 24.0265C9.55319 24.3825 10.9937 25.7692 11.4354 27.4722C11.5897 28.067 11.5897 29.2055 11.4354 29.8003C10.6875 32.6836 7.45272 34.1811 4.80514 32.8695C3.14995 32.0495 2.16283 30.4682 2.16283 28.6362C2.16283 25.627 4.9043 23.4073 7.85605 24.0265ZM17.7803 24.8196C17.953 24.898 18.1933 25.0917 18.3142 25.2502C18.5058 25.501 18.5342 25.6039 18.5342 26.0455C18.5342 26.487 18.5058 26.5899 18.3142 26.8408C17.9049 27.377 17.2172 27.5499 16.6279 27.2649C15.6169 26.776 15.6132 25.3264 16.6217 24.8277C17.0072 24.6371 17.3723 24.6345 17.7803 24.8196ZM24.8027 24.7549C25.3106 24.9467 25.6833 25.4928 25.6833 26.0455C25.6833 26.4726 25.5345 26.7822 25.1795 27.0937C24.6998 27.5144 24.0058 27.5156 23.4967 27.0964C22.8251 26.5433 22.8187 25.5382 23.4835 25.0072C23.8927 24.6804 24.3657 24.59 24.8027 24.7549ZM32.0535 24.8355C32.7247 25.1601 33.0047 25.9526 32.6829 26.6168C32.3437 27.3168 31.5292 27.5989 30.8528 27.2506C29.8489 26.7336 29.8473 25.3514 30.8499 24.8453C31.2748 24.6309 31.6246 24.6281 32.0535 24.8355ZM7.36897 27.9065L6.0255 29.234L5.51806 28.7523C4.96371 28.226 4.67212 28.1073 4.33118 28.2688C4.05317 28.4006 3.82763 28.8566 3.89933 29.142C3.95958 29.3819 5.29763 30.8009 5.62126 30.9682C5.7346 31.0267 5.93878 31.0746 6.07501 31.0746C6.29612 31.0746 6.50617 30.8921 8.02339 29.3818C9.34092 28.0703 9.73426 27.6344 9.7695 27.4468C9.85515 26.9904 9.49766 26.5833 9.00883 26.5805C8.72647 26.5789 8.64859 26.6419 7.36897 27.9065ZM21.9283 33.4434C21.2214 33.7265 21.3604 34.7574 22.1192 34.8585C22.6519 34.9295 23.0489 34.4524 22.9053 33.9135C22.8015 33.5238 22.3137 33.289 21.9283 33.4434Z" fill="white"/>
</svg>
