<svg width="15" height="9" viewBox="0 0 15 9" fill="none" xmlns="http://www.w3.org/2000/svg">
<mask id="path-1-outside-1_204_490" maskUnits="userSpaceOnUse" x="9.33567" y="0.15686" width="5" height="8" fill="black">
<rect fill="white" x="9.33567" y="0.15686" width="5" height="8"/>
<path fill-rule="evenodd" clip-rule="evenodd" d="M11.2466 2.27162L10.3802 1.40525C10.3234 1.34842 10.3234 1.2563 10.3802 1.19948C10.437 1.14265 10.5291 1.14265 10.586 1.19948L13.7829 4.39643C13.8396 4.45318 13.8396 4.54516 13.7829 4.60192L10.586 7.79886C10.5841 7.80068 10.5823 7.80244 10.5804 7.80415C10.5226 7.8584 10.4317 7.85633 10.3765 7.79912C10.3215 7.74224 10.3223 7.65213 10.3775 7.59615C10.3784 7.59522 10.3793 7.59429 10.3802 7.59338L13.4743 4.49951L11.2466 2.27162Z"/>
</mask>
<path fill-rule="evenodd" clip-rule="evenodd" d="M11.2466 2.27162L10.3802 1.40525C10.3234 1.34842 10.3234 1.2563 10.3802 1.19948C10.437 1.14265 10.5291 1.14265 10.586 1.19948L13.7829 4.39643C13.8396 4.45318 13.8396 4.54516 13.7829 4.60192L10.586 7.79886C10.5841 7.80068 10.5823 7.80244 10.5804 7.80415C10.5226 7.8584 10.4317 7.85633 10.3765 7.79912C10.3215 7.74224 10.3223 7.65213 10.3775 7.59615C10.3784 7.59522 10.3793 7.59429 10.3802 7.59338L13.4743 4.49951L11.2466 2.27162Z" fill="white"/>
<path d="M11.2467 2.27169L11.4589 2.05957L11.4588 2.05955L11.2467 2.27169ZM10.3802 1.40525L10.1681 1.61738L10.1681 1.61739L10.3802 1.40525ZM10.3802 1.19948L10.5923 1.41161L10.3802 1.19948ZM10.586 1.19948L10.3738 1.41161L10.586 1.19948ZM13.7829 4.39643L13.9951 4.18433L13.995 4.1843L13.7829 4.39643ZM13.7829 4.60192L13.995 4.81405L13.9951 4.814L13.7829 4.60192ZM10.586 7.79886L10.3738 7.58673L10.3735 7.5871L10.586 7.79886ZM10.5804 7.80416L10.3794 7.58141L10.3751 7.58535L10.5804 7.80416ZM10.3765 7.79912L10.1606 8.0075L10.1607 8.00755L10.3765 7.79912ZM10.3775 7.59614L10.5911 7.80687L10.5949 7.80286L10.3775 7.59614ZM10.3802 7.59338L10.592 7.80579L10.5923 7.80552L10.3802 7.59338ZM13.4743 4.49951L13.6865 4.71166L13.8986 4.49953L13.6865 4.28739L13.4743 4.49951ZM11.4588 2.05955L10.5923 1.1931L10.1681 1.61739L11.0346 2.48383L11.4588 2.05955ZM10.5923 1.19311C10.6527 1.25345 10.6527 1.35128 10.5923 1.41161L10.1681 0.987346C9.99408 1.16133 9.99408 1.4434 10.1681 1.61738L10.5923 1.19311ZM10.5923 1.41161C10.532 1.47194 10.4342 1.47194 10.3738 1.41161L10.7981 0.987346C10.6241 0.813365 10.342 0.813365 10.1681 0.987346L10.5923 1.41161ZM10.3738 1.41161L13.5708 4.60857L13.995 4.1843L10.7981 0.987346L10.3738 1.41161ZM13.5708 4.60854C13.5103 4.54812 13.5104 4.45021 13.5707 4.38983L13.9951 4.814C14.1689 4.64011 14.1689 4.35823 13.9951 4.18433L13.5708 4.60854ZM13.5708 4.38978L10.3738 7.58673L10.7981 8.01099L13.995 4.81405L13.5708 4.38978ZM10.3735 7.5871C10.3754 7.58515 10.3774 7.58327 10.3794 7.58145L10.7814 8.02688C10.7872 8.02163 10.7929 8.01621 10.7985 8.01062L10.3735 7.5871ZM10.1607 8.00755C10.3301 8.18287 10.6084 8.1892 10.7856 8.02298L10.3751 7.58535C10.4367 7.5276 10.5334 7.52977 10.5922 7.59068L10.1607 8.00755ZM10.1639 7.38545C9.9946 7.55709 9.99235 7.8332 10.1606 8.0075L10.5923 7.59073C10.6507 7.65127 10.6499 7.74714 10.5911 7.80683L10.1639 7.38545ZM10.5949 7.80286C10.594 7.8038 10.5931 7.80478 10.592 7.80579L10.1683 7.38096C10.1655 7.38379 10.1628 7.38661 10.1601 7.38942L10.5949 7.80286ZM10.5923 7.80552L13.6865 4.71166L13.2622 4.28737L10.1681 7.38123L10.5923 7.80552ZM11.0346 2.48381L13.2622 4.71164L13.6865 4.28739L11.4589 2.05957L11.0346 2.48381Z" fill="white" mask="url(#path-1-outside-1_204_490)"/>
<rect y="5" width="1" height="14" rx="0.500001" transform="rotate(-90 0 5)" fill="white"/>
</svg>
