<svg width="15" height="8" viewBox="0 0 15 8" fill="none" xmlns="http://www.w3.org/2000/svg">
<mask id="path-1-outside-1_205_492" maskUnits="userSpaceOnUse" x="-0.228027" y="0.0168759" width="5" height="8" fill="black">
<rect fill="white" x="-0.228027" y="0.0168759" width="5" height="8"/>
<path fill-rule="evenodd" clip-rule="evenodd" d="M3.7374 6.77859C3.78339 6.83624 3.7797 6.92049 3.72632 6.97387C3.66897 7.03121 3.576 7.03121 3.51865 6.97387L0.292222 3.74743C0.234971 3.69017 0.234971 3.59733 0.292222 3.54006L3.51865 0.313636C3.52759 0.304667 3.53757 0.296974 3.54831 0.290674C3.60571 0.255197 3.68201 0.263115 3.73081 0.313633C3.78707 0.371901 3.78546 0.464735 3.72721 0.521009L0.604315 3.64361L3.72692 6.7665C3.73067 6.77038 3.73416 6.77442 3.7374 6.77859Z"/>
</mask>
<path fill-rule="evenodd" clip-rule="evenodd" d="M3.7374 6.77859C3.78339 6.83624 3.7797 6.92049 3.72632 6.97387C3.66897 7.03121 3.576 7.03121 3.51865 6.97387L0.292222 3.74743C0.234971 3.69017 0.234971 3.59733 0.292222 3.54006L3.51865 0.313636C3.52759 0.304667 3.53757 0.296974 3.54831 0.290674C3.60571 0.255197 3.68201 0.263115 3.73081 0.313633C3.78707 0.371901 3.78546 0.464735 3.72721 0.521009L0.604315 3.64361L3.72692 6.7665C3.73067 6.77038 3.73416 6.77442 3.7374 6.77859Z" fill="white"/>
<path d="M3.7374 6.77859L3.57938 6.90122L3.58106 6.90332L3.7374 6.77859ZM3.72632 6.97387L3.5849 6.83244L3.5849 6.83244L3.72632 6.97387ZM3.51865 6.97387L3.66008 6.83244L3.66008 6.83244L3.51865 6.97387ZM0.292222 3.74743L0.150784 3.88884L0.150801 3.88885L0.292222 3.74743ZM0.292222 3.54006L0.150801 3.39863L0.150766 3.39867L0.292222 3.54006ZM3.51865 0.313636L3.66008 0.455058L3.66032 0.454809L3.51865 0.313636ZM3.54831 0.290674L3.64953 0.46323L3.65346 0.460804L3.54831 0.290674ZM3.73081 0.313633L3.87469 0.174711L3.87465 0.174677L3.73081 0.313633ZM3.72721 0.521009L3.58823 0.377143L3.58579 0.379581L3.72721 0.521009ZM0.604315 3.64361L0.4629 3.50218L0.321472 3.6436L0.462887 3.78503L0.604315 3.64361ZM3.72692 6.7665L3.87079 6.62753L3.86835 6.62509L3.72692 6.7665ZM3.58106 6.90332C3.56427 6.88228 3.56548 6.85186 3.5849 6.83244L3.86774 7.11529C3.99392 6.98911 4.00251 6.7902 3.89374 6.65386L3.58106 6.90332ZM3.5849 6.83244C3.60566 6.81169 3.63932 6.81169 3.66008 6.83244L3.37723 7.11529C3.51268 7.25074 3.73229 7.25074 3.86774 7.11529L3.5849 6.83244ZM3.66008 6.83244L0.433643 3.60601L0.150801 3.88885L3.37723 7.11529L3.66008 6.83244ZM0.43366 3.60603C0.454501 3.62687 0.454477 3.66063 0.433677 3.68144L0.150766 3.39867C0.0154658 3.53403 0.0154412 3.75346 0.150784 3.88884L0.43366 3.60603ZM0.433643 3.68148L3.66008 0.455058L3.37723 0.172214L0.150801 3.39863L0.433643 3.68148ZM3.66032 0.454809C3.65707 0.458076 3.65342 0.460886 3.64951 0.463184L3.44712 0.118165C3.42172 0.133061 3.39812 0.151258 3.37699 0.172463L3.66032 0.454809ZM3.87465 0.174677C3.75913 0.0550938 3.57888 0.0366692 3.44316 0.120544L3.65346 0.460804C3.63255 0.473724 3.60488 0.471137 3.58696 0.452589L3.87465 0.174677ZM3.86616 0.664854C4.00386 0.531836 4.00765 0.312414 3.87469 0.174711L3.58693 0.452555C3.56649 0.431388 3.56706 0.397633 3.58825 0.377164L3.86616 0.664854ZM0.74573 3.78504L3.86862 0.662437L3.58579 0.379581L0.4629 3.50218L0.74573 3.78504ZM3.86835 6.62509L0.745743 3.5022L0.462887 3.78503L3.58549 6.90792L3.86835 6.62509ZM3.8954 6.65597C3.88775 6.64612 3.87954 6.63663 3.87077 6.62755L3.58306 6.90545C3.5818 6.90413 3.58057 6.90272 3.5794 6.90121L3.8954 6.65597Z" fill="white" mask="url(#path-1-outside-1_205_492)"/>
<rect x="14.6976" y="3.33618" width="0.613448" height="14.1093" rx="0.306724" transform="rotate(90 14.6976 3.33618)" fill="white"/>
</svg>
