<svg width="31" height="31" viewBox="0 0 31 31" fill="none" xmlns="http://www.w3.org/2000/svg">
<path fill-rule="evenodd" clip-rule="evenodd" d="M5.89088 0.114984C5.55153 0.325999 5.50903 0.491015 5.50903 1.59821V2.59053H3.42732H1.34555L0.973037 2.7804C0.539357 3.00144 0.280871 3.29369 0.111861 3.75405C-0.00744068 4.07902 -0.00865308 4.23222 0.00698702 16.8304L0.0228696 29.578L0.229828 29.9672C0.454791 30.3904 0.729524 30.6478 1.18497 30.8622L1.47776 31H15.5114H29.5451L29.8837 30.838C30.2962 30.6408 30.6117 30.3293 30.8333 29.9005L31 29.578V16.7798V3.98164L30.8309 3.63034C30.6475 3.24955 30.3843 2.97973 29.9829 2.76093C29.7335 2.62503 29.6731 2.62095 27.6204 2.60302L25.5138 2.5846V1.59524C25.5138 0.491263 25.4711 0.325876 25.132 0.114984C24.8834 -0.039707 24.6266 -0.0382849 24.3736 0.119065C24.0534 0.318085 23.9983 0.539982 23.9983 1.63024V2.59053H15.5114H7.02455V1.63024C7.02455 0.539982 6.96944 0.318085 6.6493 0.119065C6.39627 -0.0382849 6.13949 -0.039707 5.89088 0.114984ZM5.50927 4.61537C5.50946 5.04247 5.53437 5.19796 5.62761 5.35395C5.80941 5.65795 6.01036 5.76485 6.33105 5.728C6.83208 5.67038 7.02455 5.34931 7.02455 4.57097V4.07438H15.5114H23.9983V4.57097C23.9983 5.34931 24.1908 5.67038 24.6918 5.728C25.0125 5.76485 25.2134 5.65795 25.3953 5.35395C25.4885 5.19796 25.5134 5.04247 25.5136 4.61537L25.5138 4.07438H27.3795C28.9701 4.07438 29.2652 4.0886 29.38 4.17064L29.5148 4.26685V16.7524C29.5148 29.1555 29.514 29.2387 29.3935 29.3616C29.273 29.4845 29.1915 29.4852 15.5114 29.4852C1.83136 29.4852 1.74983 29.4845 1.62932 29.3616C1.5091 29.239 1.50807 29.1555 1.50807 19.4693V9.70063H13.3624C26.3916 9.70063 25.4631 9.72845 25.6643 9.33171C25.8522 8.96118 25.7265 8.48567 25.3946 8.31057C25.2374 8.22766 23.8398 8.21678 13.3624 8.21678H1.50807V6.2105C1.50807 4.36497 1.51656 4.19915 1.61416 4.14115C1.67987 4.10214 2.44109 4.07741 3.61464 4.07623L5.50903 4.07438L5.50927 4.61537ZM26.9774 8.37339C26.6134 8.68574 26.5991 9.19 26.9448 9.52127C27.0753 9.64641 27.1737 9.67268 27.5816 9.69154C28.3581 9.72752 28.6661 9.51533 28.6661 8.94418C28.6661 8.67752 28.6391 8.60963 28.46 8.42699C28.2561 8.21901 28.2481 8.21678 27.7069 8.21678C27.21 8.21678 27.1432 8.23113 26.9774 8.37339ZM21.4826 14.8287C21.336 14.8896 20.3837 15.8732 16.2315 20.2522C14.4852 22.094 13.0335 23.6068 13.0056 23.614C12.9777 23.6213 12.1984 23.0969 11.2738 22.4487C10.3492 21.8006 9.52102 21.2519 9.43336 21.2295C9.22404 21.1759 8.89536 21.2904 8.7238 21.4766C8.53339 21.6834 8.49726 22.1001 8.64857 22.3453C8.71968 22.4607 9.52903 23.069 10.7666 23.9374C12.7063 25.2985 12.7788 25.3428 13.0644 25.3425C13.2407 25.3423 13.4262 25.2988 13.5254 25.2343C13.7669 25.0773 22.2948 16.0712 22.404 15.8578C22.5178 15.6355 22.4769 15.2445 22.3212 15.0662C22.1111 14.8255 21.7418 14.7209 21.4826 14.8287Z" fill="white"/>
</svg>
