<svg width="39" height="32" viewBox="0 0 39 32" fill="none" xmlns="http://www.w3.org/2000/svg">
<path fill-rule="evenodd" clip-rule="evenodd" d="M2.44505 0.108454C1.24346 0.414409 0.314682 1.33573 0.066651 2.46788C0.00902605 2.73073 -0.00972491 6.31758 0.00452887 14.3759L0.0248805 25.9078L0.204539 26.329C0.545944 27.1294 1.29583 27.8143 2.17446 28.1283L2.61648 28.2862L12.697 28.3058L22.7776 28.3254V29.9396C22.7776 30.8274 22.7989 31.6063 22.8249 31.6705C22.8836 31.8151 23.2459 31.9981 23.4733 31.9981C23.5901 31.9981 24.0026 31.6606 24.7951 30.917C25.4286 30.3223 25.9785 29.8358 26.0171 29.8358C26.0556 29.8358 26.6055 30.3223 27.2391 30.917C28.5209 32.1199 28.6275 32.1716 29.0338 31.7874L29.2566 31.5767V29.9534V28.3301L32.82 28.3082C36.2722 28.2869 36.3973 28.2813 36.8255 28.1283C37.7041 27.8144 38.454 27.1295 38.7954 26.329L38.9751 25.9078L38.9954 14.3759C39.0097 6.31758 38.9909 2.73073 38.9333 2.46788C38.7484 1.62403 38.0507 0.738887 37.2758 0.36511C36.4717 -0.0228655 37.43 -0.00326108 19.4649 0.00185619C5.39467 0.00589235 2.78379 0.0221809 2.44505 0.108454ZM36.336 1.33451C36.8002 1.46489 37.2725 1.83723 37.5132 2.26254L37.6793 2.55574L37.6992 14.0123C37.7214 26.711 37.7549 25.84 37.2215 26.4293C37.0772 26.5886 36.7954 26.7959 36.5951 26.89L36.231 27.061L32.7438 27.083L29.2566 27.105V25.6803V24.2556L29.5774 23.9464L29.8982 23.6374L31.0503 24.7185C31.6838 25.3132 32.2684 25.8034 32.3492 25.808C32.6736 25.8263 32.8086 25.7838 32.9725 25.6115L33.144 25.4312V21.1547C33.144 17.048 33.15 16.8657 33.2947 16.564C33.3777 16.3913 33.4463 16.1625 33.4472 16.0557C33.4491 15.8346 33.693 15.6372 33.9643 15.6372C34.2289 15.6372 34.6913 15.3894 34.9534 15.1071C35.29 14.7445 35.3826 14.4149 35.323 13.7916L35.2724 13.2641L35.5741 13.084C36.2167 12.7004 36.5315 12.0245 36.3572 11.4029C36.3043 11.2145 36.1772 10.9453 36.0746 10.8043C35.972 10.6635 35.888 10.5116 35.888 10.4668C35.888 10.422 35.9995 10.2158 36.1357 10.0086C36.3463 9.68835 36.3829 9.56582 36.38 9.19291C36.3755 8.61776 36.1562 8.21991 35.6569 7.88065L35.2785 7.62357L35.3225 7.03566C35.3616 6.51305 35.3468 6.41185 35.189 6.12442C34.9627 5.7123 34.4645 5.35373 34.0334 5.29261C33.5735 5.22738 33.5184 5.1801 33.44 4.78355C33.3517 4.33676 33.0748 3.94317 32.6718 3.69155C32.3808 3.50985 32.2913 3.4927 31.6351 3.4927H30.9169L30.6933 3.18761C30.4534 2.86039 29.9838 2.56453 29.5772 2.48431C29.2452 2.41879 28.6452 2.56035 28.3337 2.77765C28.0179 2.99791 27.8606 2.99719 27.5509 2.77383C26.8083 2.23825 25.7493 2.44272 25.1904 3.22963L24.9704 3.53948L24.4046 3.48931C23.2755 3.38927 22.686 3.83794 22.4369 4.98716C22.4064 5.12756 22.3342 5.19704 22.1857 5.22861C21.5609 5.36159 21.4082 5.42271 21.1217 5.65464C20.6795 6.01249 20.532 6.41265 20.5924 7.08921L20.6398 7.61924L20.2473 7.89838C19.5366 8.40399 19.3246 9.11774 19.6796 9.81023C19.7882 10.0222 19.921 10.2526 19.9744 10.3224C20.055 10.4273 20.049 10.483 19.9396 10.6467C19.6442 11.0885 19.5032 11.4369 19.5016 11.7295C19.4987 12.2837 19.8237 12.7909 20.3968 13.1262L20.6458 13.272L20.5964 13.8304C20.5647 14.1912 20.5793 14.4807 20.6378 14.6484C20.7657 15.0148 21.2776 15.4752 21.6617 15.5695C22.3327 15.734 22.3548 15.7455 22.4221 15.9628C22.4587 16.081 22.5538 16.3411 22.6336 16.5407C22.7719 16.8868 22.7777 17.1403 22.7591 21.9823L22.7395 27.061H12.7542H2.76892L2.4048 26.89C2.20449 26.7959 1.92269 26.5886 1.77848 26.4293C1.24507 25.84 1.27853 26.711 1.30071 14.0123L1.32068 2.55574L1.48547 2.26744C1.72886 1.84177 2.13459 1.50893 2.59231 1.35945C2.9806 1.2326 3.68787 1.22697 19.467 1.22474C34.1548 1.22265 35.9798 1.23447 36.336 1.33451ZM26.9952 3.90446C27.2956 4.08674 27.479 4.14223 27.8557 4.16494C28.2934 4.19132 28.3771 4.17121 28.8327 3.93026C29.2403 3.71476 29.3588 3.68096 29.4842 3.74446C29.5686 3.7872 29.6377 3.85415 29.6377 3.89329C29.6377 3.93235 29.7776 4.108 29.9487 4.28343C30.3818 4.72769 30.8311 4.84669 31.6031 4.72142C31.9876 4.65901 32.1522 4.75205 32.1547 5.03307C32.1566 5.25239 32.4073 5.80564 32.5955 6.00622C32.7661 6.18799 33.4361 6.4822 33.6813 6.48306C34.0123 6.48429 34.0619 6.59838 34.0099 7.23869C33.9689 7.7422 33.9841 7.86199 34.1204 8.11468C34.2763 8.4037 34.7554 8.86223 34.9014 8.86223C34.9428 8.86223 35.0153 8.9426 35.0627 9.04091C35.1361 9.19313 35.1195 9.25972 34.951 9.49137C34.6847 9.85729 34.5921 10.1106 34.593 10.4706C34.5937 10.7699 34.8804 11.4662 35.0417 11.5604C35.2241 11.667 35.1096 11.8804 34.7256 12.1495C34.4847 12.3183 34.2547 12.559 34.1478 12.7542C33.991 13.0405 33.9748 13.1476 34.0102 13.6676C34.0564 14.3447 34.0511 14.3525 33.4568 14.4843C32.7868 14.6329 32.2916 15.1349 32.1833 15.7754C32.1557 15.939 32.0947 16.0965 32.0478 16.1253C32.0008 16.1541 31.6514 16.1778 31.2712 16.1778C30.6467 16.1778 30.5496 16.1967 30.2666 16.3737C30.0943 16.4813 29.8463 16.7165 29.7156 16.8962C29.4418 17.2725 29.2831 17.3034 28.9275 17.0497C28.3651 16.6483 27.6205 16.6323 27.0328 17.0089C26.8515 17.1251 26.6479 17.2208 26.5804 17.2215C26.5129 17.2223 26.3243 17.0551 26.1612 16.8501C25.7349 16.3143 25.4134 16.1778 24.5773 16.1778C23.8202 16.1778 23.842 16.1918 23.6828 15.6014C23.5394 15.0696 23.0229 14.6022 22.4428 14.4795C22.2038 14.4289 21.9842 14.3525 21.9547 14.3097C21.9252 14.2668 21.901 13.9378 21.901 13.5785C21.901 12.9899 21.8807 12.8962 21.6954 12.6309C21.5824 12.469 21.3425 12.2429 21.1624 12.1285C20.9824 12.0142 20.8244 11.8687 20.8115 11.8052C20.7986 11.7417 20.8922 11.5343 21.0196 11.3444C21.424 10.7415 21.4225 10.1377 21.0151 9.55624C20.7491 9.17648 20.7697 8.988 21.0947 8.82908C21.393 8.68327 21.7536 8.2744 21.8647 7.95626C21.9259 7.78083 21.9416 7.51099 21.9094 7.18427C21.8539 6.61892 21.9173 6.48378 22.2384 6.48378C22.3508 6.48378 22.6249 6.39794 22.8476 6.293C23.3133 6.07361 23.6493 5.64484 23.7333 5.16281C23.8113 4.71508 23.8827 4.66304 24.3348 4.72438C25.142 4.83386 25.6165 4.68798 26.042 4.19968C26.4343 3.7495 26.5101 3.67289 26.563 3.67289C26.5908 3.67289 26.7853 3.77711 26.9952 3.90446ZM6.64054 4.97015C5.36052 5.14969 4.23752 6.17026 3.95992 7.40626C3.90008 7.67286 3.87416 9.71985 3.87416 14.1841C3.87416 21.1133 3.86608 20.9662 4.29103 21.7591C4.55377 22.2493 5.17667 22.8048 5.77312 23.0808L6.2752 23.3131L13.0143 23.3327L19.7535 23.3522L19.9316 23.194C20.217 22.9405 20.1555 22.3745 19.8261 22.2225C19.7515 22.188 16.7235 22.1437 13.0972 22.1239L6.50387 22.0879L6.22893 21.9262C5.8511 21.704 5.56602 21.4225 5.37188 21.0798L5.20807 20.7905V14.1597V7.52886L5.43476 7.14182C5.67761 6.72725 5.95125 6.49286 6.43177 6.28781C6.70998 6.16911 7.20048 6.15671 12.9706 6.12341L19.2086 6.08737L19.3543 5.91721C19.5523 5.68585 19.5374 5.37975 19.316 5.13643L19.1321 4.93419L13.0848 4.92431C9.75877 4.91891 6.85885 4.93952 6.64054 4.97015ZM26.8174 5.65861C26.1165 5.80052 25.0399 6.32911 24.478 6.80711C23.8799 7.31588 23.3669 8.04376 23.0687 8.80652C22.8742 9.30405 22.8295 9.54002 22.7987 10.2316C22.7534 11.2465 22.8748 11.807 23.3293 12.6822C23.5831 13.1709 23.7792 13.4191 24.2987 13.9094C25.361 14.9121 26.4737 15.35 27.9539 15.3478C28.8696 15.3465 29.5029 15.2085 30.2997 14.8367C32.7645 13.6865 33.8455 10.7368 32.6598 8.39627C32.1039 7.2988 31.342 6.57063 30.2094 6.05415C29.1435 5.56808 27.9511 5.42905 26.8174 5.65861ZM28.7383 6.85115C29.4204 6.98463 30.1892 7.37722 30.6828 7.8439C32.2336 9.31032 32.2293 11.6407 30.673 13.0786C29.8858 13.806 29.0612 14.1237 27.9608 14.1237C26.841 14.1237 26.0307 13.8049 25.2119 13.0425C24.4526 12.3356 24.076 11.4878 24.0743 10.481C24.0701 8.15158 26.3434 6.38237 28.7383 6.85115ZM7.3389 8.82295C7.09659 9.05201 7.09537 9.36877 7.3357 9.633L7.5197 9.83524H12.3222H17.1248L17.3214 9.66053C17.5827 9.42838 17.5922 9.02527 17.3418 8.8027L17.1653 8.64601H12.3456H7.52595L7.3389 8.82295ZM7.3389 11.2735C7.07662 11.5214 7.09026 11.8423 7.37457 12.1111L7.59737 12.3218H12.2948C17.2608 12.3218 17.3399 12.3168 17.4708 11.9942C17.5726 11.7435 17.5152 11.4475 17.331 11.2735L17.144 11.0965H12.335H7.52595L7.3389 11.2735ZM7.3389 13.724C6.99506 14.0491 7.16176 14.629 7.6303 14.7379C7.72345 14.7595 9.92074 14.768 12.5133 14.7568L17.2268 14.7363L17.3725 14.5661C17.5802 14.3234 17.5615 13.9418 17.331 13.724L17.144 13.5471H12.335H7.52595L7.3389 13.724ZM9.57286 17.3356C9.36172 17.444 9.33153 17.5134 9.25066 18.0764C9.15447 18.7463 8.78112 19.1535 7.86233 19.5904C7.33936 19.8391 7.15177 20.0373 7.15177 20.3414C7.15177 20.6225 7.4588 20.8986 7.77147 20.8986C8.20205 20.8986 9.12055 20.4089 9.68064 19.8806L10.1896 19.4006L10.3622 19.5744C11.0554 20.2721 12.1565 20.4976 12.8129 20.0763C13.0665 19.9137 13.0773 19.9129 13.3332 20.037C13.964 20.343 16.1765 20.7533 17.2001 20.7541C17.716 20.7545 17.7756 20.7384 17.9814 20.5438C18.2659 20.2747 18.2701 20.0129 17.994 19.7519C17.7964 19.565 17.7316 19.5504 16.9078 19.5072C16.3378 19.4773 15.6989 19.3846 15.079 19.2419C13.8943 18.969 13.7257 18.9051 13.5727 18.6713C13.3133 18.275 13.1547 18.1598 12.8685 18.1598C12.5222 18.1598 12.2715 18.3904 12.2065 18.7684C12.1811 18.9162 12.1164 19.0532 12.0625 19.0728C11.7444 19.1882 10.9194 18.4828 10.6175 17.8371C10.3456 17.2559 10.0267 17.1028 9.57286 17.3356ZM25.1686 17.6373C25.5002 18.1287 26.0136 18.4481 26.472 18.4481H26.665V21.9397V25.4312L26.8365 25.6198C27.0567 25.8619 27.4269 25.8803 27.7357 25.6645L27.9608 25.5071V27.6853V29.8636L27.1337 29.0929C26.3749 28.3859 26.2827 28.3223 26.0171 28.3223C25.7514 28.3223 25.6592 28.3859 24.9005 29.0929L24.0734 29.8636V23.6557V17.4478L24.3592 17.4195C24.9818 17.3579 24.9796 17.3573 25.1686 17.6373ZM31.6767 17.4383L31.8482 17.4391V20.5911V23.7431L31.0122 22.9551C30.2617 22.2476 30.1485 22.1671 29.9045 22.1671C29.6604 22.1671 29.5473 22.2476 28.7967 22.9551L27.9608 23.7431V20.8434C27.9608 19.2485 27.9769 17.9436 27.9967 17.9436C28.0164 17.9436 28.1865 18.0462 28.3747 18.1716C29.1679 18.7003 30.2007 18.4675 30.7566 17.6348C30.9347 17.3681 30.9642 17.3529 31.2259 17.3938C31.3795 17.4178 31.5823 17.4378 31.6767 17.4383Z" fill="white"/>
</svg>
