<svg width="11" height="9" viewBox="0 0 11 9" fill="none" xmlns="http://www.w3.org/2000/svg">
<path fill-rule="evenodd" clip-rule="evenodd" d="M9.61926 0.0109838C9.34686 0.070066 9.5075 -0.0874863 6.55473 3.01703L3.80978 5.90306L2.77704 4.8157C1.66079 3.64042 1.63797 3.62025 1.36297 3.56693C1.25299 3.54558 1.19118 3.54521 1.09613 3.56529C0.852265 3.61687 0.754678 3.68391 0.437356 4.01796C0.190796 4.27752 0.130151 4.35514 0.0707773 4.48717C0.00561205 4.63201 -0.000351194 4.66358 1.47813e-05 4.86068C0.000380757 5.0489 0.00830305 5.09452 0.0629841 5.22329C0.121691 5.36151 0.227652 5.47836 1.78247 7.11945C2.97912 8.38249 3.46992 8.88606 3.54938 8.93232C3.7025 9.02147 3.91152 9.02265 4.06839 8.93524C4.14958 8.89001 4.99916 8.00742 7.52551 5.3439C10.7132 1.98304 10.878 1.80541 10.9373 1.66522C10.9916 1.53667 10.9996 1.49046 11 1.30261C11.0006 0.991017 10.9416 0.869272 10.6219 0.521782C10.3506 0.226961 10.2182 0.115618 10.0687 0.0562869C9.94209 0.00608866 9.7371 -0.0145799 9.61926 0.0109838Z" fill="white"/>
</svg>
