<svg width="15" height="15" viewBox="0 0 15 15" fill="none" xmlns="http://www.w3.org/2000/svg">
<path fill-rule="evenodd" clip-rule="evenodd" d="M6.82485 0.0177492C5.37592 0.159659 4.03675 0.69364 2.8626 1.59765C2.29081 2.03788 1.54826 2.86522 1.11915 3.54011C0.933829 3.83159 0.573077 4.57019 0.443845 4.92267C0.29935 5.31683 0.145346 5.91915 0.0695617 6.38652C-0.0231872 6.95856 -0.0231872 8.04466 0.0695617 8.6167C0.200702 9.42537 0.408154 10.0791 0.763242 10.8029C1.1512 11.5935 1.5546 12.154 2.20059 12.7999C2.8466 13.4457 3.4072 13.8491 4.19806 14.2369C4.92198 14.5919 5.57586 14.7993 6.38471 14.9305C6.95688 15.0232 8.04321 15.0232 8.61538 14.9305C9.42423 14.7993 10.0781 14.5919 10.802 14.2369C11.5929 13.8491 12.1535 13.4457 12.7995 12.7999C13.4455 12.154 13.8489 11.5935 14.2368 10.8029C14.5962 10.0704 14.8064 9.40425 14.9313 8.60203C15.0229 8.0137 15.0229 6.98952 14.9313 6.4012C14.8064 5.59898 14.5962 4.93283 14.2368 4.20036C13.8489 3.40967 13.4455 2.8492 12.7995 2.20332C12.1535 1.55748 11.5929 1.15417 10.802 0.766297C10.0788 0.411611 9.41199 0.200008 8.63005 0.077025C8.19863 0.00918063 7.23527 -0.0224527 6.82485 0.0177492ZM8.43927 1.061C9.53946 1.22827 10.5322 1.64484 11.4329 2.31715C11.7919 2.58512 12.4181 3.21263 12.6826 3.56945C13.3774 4.50669 13.7729 5.45208 13.947 6.59193C14.0176 7.05379 14.0176 7.94944 13.947 8.41129C13.7739 9.5444 13.3647 10.5247 12.6863 11.4314C12.4155 11.7933 11.7898 12.4197 11.4329 12.6861C10.2518 13.5677 8.95911 13.9994 7.50004 13.9994C6.04098 13.9994 4.74828 13.5677 3.56717 12.6861C3.20914 12.4188 2.58177 11.7916 2.31444 11.4336C1.43262 10.2528 1.00084 8.96035 1.00084 7.50161C1.00084 6.04243 1.43291 4.74919 2.31379 3.5718C2.58456 3.20993 3.21029 2.58357 3.56717 2.31715C4.49838 1.62207 5.57318 1.18352 6.67822 1.04777C6.81543 1.03093 6.97393 1.01156 7.03043 1.00472C7.23876 0.979572 8.14051 1.01561 8.43927 1.061ZM7.34316 2.23308C7.20648 2.28179 7.10789 2.37026 7.04675 2.49906C7.00645 2.58395 7.00108 2.91149 7.00108 5.2832V7.97112L9.10701 7.97042C10.2653 7.97004 11.2647 7.95771 11.3281 7.94304C11.4863 7.90636 11.5823 7.8296 11.6624 7.67595C11.786 7.43893 11.6851 7.13484 11.443 7.01467C11.3368 6.96197 11.2344 6.95824 9.66467 6.95026L7.99901 6.94178V4.77049C7.99901 3.00305 7.99155 2.5814 7.95897 2.5034C7.90793 2.38127 7.76379 2.25975 7.62388 2.2209C7.48868 2.18337 7.48176 2.18366 7.34316 2.23308Z" fill="#959494"/>
</svg>
