<svg width="39" height="39" viewBox="0 0 39 39" fill="none" xmlns="http://www.w3.org/2000/svg">
<path fill-rule="evenodd" clip-rule="evenodd" d="M18.0845 0.0262261C15.2059 0.319449 13.1056 0.901698 10.801 2.04537C5.45024 4.70062 1.56773 9.70937 0.384137 15.484C0.0740215 16.997 -1.52588e-05 17.7733 -1.52588e-05 19.5133C-1.52588e-05 21.2554 0.0735636 22.025 0.38635 23.5572C1.45889 28.8106 4.83528 33.5053 9.57325 36.3312C11.8051 37.6624 14.3988 38.5466 17.1304 38.9074C18.0657 39.0309 20.9274 39.0309 21.8627 38.9074C26.2988 38.3214 30.0959 36.4737 33.2233 33.3792C34.8254 31.7939 35.9811 30.1983 36.9705 28.2059C37.9104 26.313 38.4716 24.5506 38.8231 22.3878C39.061 20.9236 39.0585 18.0752 38.818 16.652C38.4388 14.4075 37.8876 12.6702 36.9664 10.815C36.2476 9.36747 35.2388 7.8162 34.9037 7.64292C34.6082 7.49025 34.2334 7.54976 34.0196 7.78324C33.6723 8.1626 33.737 8.47567 34.3364 9.31528C34.8228 9.99664 35.6062 11.418 35.9871 12.3101C36.9854 14.6487 37.4519 16.9062 37.452 19.3988C37.452 20.8432 37.3731 21.7001 37.1181 23.0231C36.4745 26.3633 34.8475 29.5034 32.4849 31.9654C25.583 39.1573 14.1689 39.3742 6.98845 32.4497C-0.33944 25.383 -0.321198 13.5754 7.02844 6.54221C9.87474 3.81844 13.4344 2.15272 17.4739 1.65417C18.5335 1.52339 20.8384 1.54239 21.8627 1.69034C23.6348 1.94633 25.1664 2.36812 26.6712 3.01438C27.5714 3.401 28.9958 4.18376 29.6862 4.67109C30.6149 5.32682 30.9129 5.37275 31.295 4.91892C31.4589 4.72412 31.4886 4.62653 31.4565 4.38749C31.4349 4.22642 31.3734 4.04184 31.3198 3.97729C31.1776 3.806 29.6368 2.7983 28.8933 2.3904C26.9744 1.33753 24.6799 0.563382 22.4131 0.203854C21.4796 0.0557544 18.8525 -0.0519819 18.0845 0.0262261ZM17.8555 3.57466C14.218 3.957 10.8242 5.58746 8.1951 8.21571C6.37142 10.0387 5.08372 12.1105 4.30313 14.4775C3.19097 17.8499 3.19097 21.1765 4.30313 24.5491C5.86614 29.2892 9.71697 33.1387 14.459 34.7015C20.2791 36.6196 26.4596 35.1479 30.798 30.8109C33.4652 28.1447 35.0609 24.7924 35.4442 21.0503C35.788 17.6935 34.9634 14.116 33.1727 11.1965C31.8976 9.11758 29.8958 7.11645 27.8161 5.84177C24.8844 4.0449 21.2507 3.2178 17.8555 3.57466ZM21.7639 5.21031C24.7911 5.69261 27.5363 7.09837 29.726 9.28735C31.9286 11.4892 33.3032 14.181 33.818 17.3006C33.9991 18.3972 33.9991 20.6293 33.818 21.726C33.3032 24.8456 31.9286 27.5374 29.726 29.7392C27.5234 31.941 24.8306 33.3152 21.71 33.8299C20.613 34.0108 18.3801 34.0108 17.2831 33.8299C14.1625 33.3152 11.4697 31.941 9.2671 29.7392C7.06455 27.5374 5.6899 24.8456 5.17508 21.726C4.99403 20.6293 4.99403 18.3972 5.17508 17.3006C5.6899 14.181 7.06455 11.4892 9.2671 9.28735C11.7257 6.82956 14.925 5.34841 18.3898 5.06397C19.0896 5.00651 21.0071 5.08968 21.7639 5.21031ZM32.4041 5.58052C31.7425 5.94714 32.0193 7.00001 32.7774 7.00001C33.0286 7.00001 33.3189 6.8259 33.4319 6.60745C33.6091 6.26478 33.5667 6.01887 33.2811 5.73343C32.9988 5.45119 32.7239 5.40327 32.4041 5.58052ZM19.2294 6.30911C18.8669 6.45744 18.7728 6.67337 18.7453 7.42005C18.7253 7.96193 18.7486 8.19198 18.8443 8.39357C19.0763 8.88212 19.642 8.97933 20.025 8.59645C20.2555 8.36602 20.2598 8.34786 20.2598 7.60813C20.2598 6.76814 20.1785 6.50673 19.8671 6.34574C19.6342 6.22534 19.4588 6.21526 19.2294 6.30911ZM10.9421 10.9618C10.7022 11.2016 10.6501 11.5281 10.8033 11.8311C10.8497 11.9227 12.3134 13.4267 14.0561 15.1733L17.2245 18.349L17.0926 18.8739C16.9278 19.5298 16.9741 20.0559 17.2442 20.5968C17.5043 21.118 17.8945 21.5166 18.3614 21.7381L18.7333 21.9146V23.9224C18.7333 26.0519 18.7658 26.2699 19.1107 26.4544C19.4015 26.6099 19.7985 26.548 20.0367 26.3099L20.2598 26.0869V24.0008V21.9146L20.6317 21.7381C21.6211 21.2686 22.1779 20.1046 21.9429 18.9974C21.7547 18.1112 20.9512 17.2809 20.0891 17.082C19.5913 16.9671 19.4071 16.9724 18.825 17.1184L18.3346 17.2413L15.0763 13.9901L11.8182 10.7387H11.4917C11.2326 10.7387 11.1192 10.7847 10.9421 10.9618ZM19.9498 18.6608C20.2365 18.8145 20.4888 19.2136 20.4888 19.5133C20.4888 19.6195 20.4261 19.8234 20.3493 19.9664C20.1956 20.253 19.7964 20.5052 19.4965 20.5052C19.0249 20.5052 18.5043 19.9848 18.5043 19.5133C18.5043 19.4071 18.567 19.2032 18.6438 19.0602C18.7975 18.7736 19.1967 18.5214 19.4965 18.5214C19.6028 18.5214 19.8067 18.5841 19.9498 18.6608ZM6.5888 18.8647C6.17061 19.092 6.121 19.7075 6.49286 20.0569C6.66192 20.2159 6.77328 20.2414 7.39733 20.2643C7.94108 20.2843 8.17128 20.261 8.37301 20.1653C8.86173 19.9334 8.95897 19.3679 8.57597 18.9851C8.34401 18.7531 8.33164 18.7503 7.56464 18.7533C7.04363 18.7554 6.7226 18.792 6.5888 18.8647ZM30.5931 18.8675C30.1289 19.1035 30.0441 19.6687 30.4171 20.0415C30.6479 20.2723 30.665 20.2763 31.4132 20.2763C32.279 20.2763 32.5508 20.1813 32.6975 19.8271C32.8196 19.5324 32.7426 19.1975 32.5003 18.9697C32.3289 18.8086 32.2256 18.7862 31.5693 18.7675C31.0136 18.7517 30.7722 18.7765 30.5931 18.8675ZM7.58242 22.5494C7.36123 22.7471 7.32589 22.8262 7.33322 23.1071C7.35329 23.8724 8.3563 24.1383 8.70206 23.4699C8.96371 22.9641 8.70168 22.4348 8.15335 22.3612C7.8817 22.3248 7.80606 22.3497 7.58242 22.5494ZM8.65229 25.0774C8.28478 25.4447 8.33668 25.6987 8.97645 26.6624C10.0763 28.3192 12.0528 30.0395 13.881 30.9312C14.7969 31.3779 15.1624 31.3666 15.4123 30.8836C15.691 30.3449 15.4796 30.0209 14.5426 29.5505C12.8864 28.719 11.2588 27.3114 10.2658 25.852C9.62553 24.9112 9.56409 24.8543 9.18658 24.8543C8.94439 24.8543 8.82594 24.9038 8.65229 25.0774ZM18.9681 30.4301C18.7373 30.6609 18.7333 30.6779 18.7333 31.4259C18.7333 32.2914 18.8283 32.563 19.1826 32.7097C19.4775 32.8319 19.8125 32.7548 20.0403 32.5125C20.1994 32.3435 20.2249 32.2322 20.2478 31.6084C20.2678 31.0648 20.2445 30.8347 20.1488 30.633C19.9168 30.1445 19.3511 30.0473 18.9681 30.4301Z" fill="white"/>
</svg>
