<svg width="8" height="18" viewBox="0 0 8 18" fill="none" xmlns="http://www.w3.org/2000/svg">
<path fill-rule="evenodd" clip-rule="evenodd" d="M5.1875 0.832169C3.64266 1.09754 2.67478 2.15214 2.38547 3.88529C2.34631 4.11983 2.33219 4.50983 2.32078 5.67214L2.30616 7.15897H1.15309H0V8.67071V10.1825H1.15625H2.3125V13.9867V17.791H3.75H5.1875V13.9867V10.1825H6.29688C6.90703 10.1825 7.40625 10.1738 7.40625 10.1633C7.40625 10.1528 7.48359 9.48858 7.57812 8.68733C7.67266 7.88607 7.75 7.21442 7.75 7.19475C7.75 7.16977 7.36247 7.15897 6.46712 7.15897H5.18422L5.19441 5.82166C5.20338 4.63771 5.21088 4.4672 5.25981 4.33483C5.38203 4.00414 5.56678 3.81848 5.89828 3.69325C6.06091 3.63182 6.17019 3.62401 7.03906 3.61172L8 3.5981V2.25434C8 1.20897 7.99131 0.907424 7.96094 0.896492C7.85731 0.859147 7.02659 0.808878 6.29688 0.795754C5.66322 0.784358 5.41903 0.792398 5.1875 0.832169Z" fill="#C7C8D3"/>
</svg>
