<svg width="30" height="39" viewBox="0 0 30 39" fill="none" xmlns="http://www.w3.org/2000/svg">
<path fill-rule="evenodd" clip-rule="evenodd" d="M13.6864 0.0504697C8.68244 0.664702 4.85599 4.22303 3.89356 9.15701C3.77897 9.74464 3.76001 10.3625 3.76158 13.4638C3.76346 17.1068 3.79487 17.6638 4.08226 19.1427C4.65696 22.1003 6.07322 25.0731 7.87228 27.0983C8.27059 27.5466 8.40993 27.7535 8.34132 27.7948C8.28766 27.8271 7.11147 28.2397 5.72763 28.7118C4.34372 29.1838 3.00194 29.6539 2.74596 29.7565C1.4645 30.27 0.599828 31.1867 0.174972 32.4823C0.00679945 32.9951 -1.52588e-05 33.1266 -1.52588e-05 35.8619V38.7081L0.184919 38.8538C0.436277 39.0521 0.712857 39.037 0.943457 38.8125L1.13575 38.6255V36.0811C1.13575 33.6791 1.20664 32.6729 1.37591 32.6729C1.45244 32.6729 4.33236 35.0644 4.52865 35.2909C4.90894 35.7298 4.97035 36.0037 4.97215 37.2693C4.97348 38.1746 5.00231 38.5272 5.08847 38.6893C5.2745 39.0394 5.60677 39.0986 5.94241 38.8416L6.14881 38.6837V37.3691C6.14881 35.1761 6.05701 35.0144 3.69273 33.0432C2.78184 32.2837 2.0262 31.6365 2.01351 31.6049C1.98429 31.532 2.50134 31.1346 2.85437 30.9587C3.06868 30.852 5.64171 29.9287 5.72489 29.9287C5.73664 29.9287 5.87004 30.1774 6.02129 30.4814C7.08335 32.6155 9.06508 34.3911 11.3517 35.2575C12.6079 35.7334 13.5733 35.9075 14.9608 35.9079C17.0451 35.9087 18.9132 35.3755 20.5129 34.3232C20.8095 34.1283 21.0822 33.9687 21.1191 33.9687C21.2029 33.9687 21.7414 35.0042 22.0404 35.7404C22.3242 36.4391 22.4922 37.1761 22.562 38.0294C22.6103 38.62 22.6397 38.7157 22.8137 38.8489C23.1412 39.0995 23.476 39.0183 23.6844 38.6377C23.806 38.4157 23.6787 37.127 23.4518 36.2818C23.1294 35.0809 22.864 34.5339 21.5155 32.2917C19.8651 29.5473 19.5001 28.5516 19.3944 26.5055C19.3379 25.4123 19.3214 25.3213 19.1556 25.1906C18.9219 25.0065 18.564 25.012 18.3681 25.2027C18.2285 25.3386 18.2115 25.4566 18.2117 26.2889C18.2121 27.695 18.4453 28.7573 19.1144 30.4002L19.2598 30.7572L19.0685 30.9151C17.9087 31.8726 16.0617 32.4584 14.6083 32.3298C12.8834 32.1772 11.7797 31.6775 10.5723 30.5025C9.79683 29.7479 9.17591 28.8509 9.33226 28.7113C9.36923 28.6783 9.53176 28.6101 9.69351 28.5598C10.1065 28.4314 10.8702 27.9192 11.1156 27.6061C11.2291 27.4612 11.4178 27.1613 11.5348 26.9396C11.7393 26.5523 11.7486 26.4827 11.7755 25.1455C11.7908 24.3803 11.8132 23.7544 11.8253 23.7544C11.8373 23.7544 12.0014 23.8078 12.1899 23.8732C13.2313 24.2341 14.6085 24.387 15.8286 24.277C17.7635 24.1025 19.5813 23.2954 21.0063 21.9781C22.3029 20.7796 23.2137 19.1836 23.5598 17.5038L23.6619 17.0083L24.1678 16.9614C24.446 16.9355 24.7706 16.8764 24.889 16.8299L25.1044 16.7454V27.7145V38.6837L25.3108 38.8416C25.6465 39.0986 25.9787 39.0394 26.1648 38.6893C26.2566 38.5165 26.2794 38.0866 26.2794 36.529V34.5843L27.4194 33.6286C28.0464 33.1029 28.5879 32.6729 28.6226 32.6729C28.7933 32.6729 28.8642 33.6726 28.8642 36.0811V38.6255L29.0565 38.8125C29.2871 39.037 29.5637 39.0521 29.8151 38.8538L30 38.7081V35.8619C30 33.1266 29.9932 32.9951 29.825 32.4823C29.32 30.9424 28.3782 30.103 26.4197 29.4472C26.2947 29.4053 26.2841 28.7572 26.2572 19.5465C26.2316 10.7988 26.214 9.62207 26.1004 9.08078C25.5537 6.47643 24.3034 4.31953 22.4021 2.7014C20.8924 1.4166 19.176 0.592135 17.1953 0.200407C16.2566 0.0147195 14.566 -0.0574669 13.6864 0.0504697ZM16.919 1.30485C20.5143 2.02824 23.3679 4.44767 24.5223 7.75124C24.9188 8.8861 25.0334 9.63701 25.0829 11.4247C25.1293 13.1003 25.1281 13.1057 24.7684 12.9184C24.6713 12.8679 23.9811 12.8065 23.1482 12.7744C21.5497 12.7127 20.5353 12.5447 19.3888 12.1513C15.4726 10.8077 12.0973 7.7453 9.96594 3.60201C9.59779 2.8864 9.52252 2.68287 9.60649 2.63035C10.4824 2.08251 12.2163 1.43588 13.2376 1.27619C13.5391 1.22901 13.874 1.1758 13.9817 1.15789C14.398 1.08852 16.3227 1.18487 16.919 1.30485ZM10.2602 6.37475C13.4985 11.0738 18.3608 13.9133 23.1802 13.9198C24.4516 13.9215 24.784 14.0414 24.9929 14.5737C25.1108 14.8741 25.1132 14.944 25.0143 15.1967C24.9517 15.357 24.788 15.5568 24.6397 15.6541C24.3113 15.8694 23.7915 15.8916 23.7193 15.6934C23.6238 15.4314 23.4352 15.2932 23.1732 15.2932C22.8864 15.2932 22.5983 15.5125 22.5973 15.7315C22.5953 16.1424 22.4163 17.3126 22.2821 17.7926C21.5473 20.4205 19.2907 22.4678 16.5058 23.0334C15.7181 23.1933 14.2819 23.1933 13.4942 23.0334C11.5161 22.6317 9.82087 21.5156 8.70273 19.8789C7.98719 18.8314 7.62523 17.8201 7.47422 16.446C7.37184 15.5148 7.33158 15.4136 7.02186 15.3086C6.73471 15.2111 6.46244 15.3319 6.32074 15.6194C6.23262 15.7983 6.17153 15.8268 5.87638 15.8268C5.24137 15.8268 4.77876 15.2206 4.97419 14.6445C5.12419 14.202 5.4704 14.0081 6.24672 13.9315C7.03197 13.854 7.49333 13.662 7.94113 13.2261C8.45787 12.7233 8.59894 12.3462 8.66779 11.2831C8.74072 10.1568 8.92479 9.68366 9.51429 9.10693C9.80834 8.81933 9.9086 8.66428 9.9086 8.49735C9.9086 8.25259 9.60758 7.89928 9.39915 7.89928C9.18069 7.89928 8.85265 8.10608 8.53181 8.44605C7.83132 9.18842 7.57299 9.8525 7.50398 11.0883C7.43176 12.3809 7.18651 12.6595 5.97774 12.8217C5.57638 12.8756 5.16335 12.9446 5.05988 12.975L4.87166 13.0303L4.91834 11.4366C4.94458 10.5397 5.01782 9.56177 5.08589 9.19962C5.45019 7.26096 6.43307 5.42733 7.84385 4.05441L8.52202 3.39445L9.0628 4.40818C9.36022 4.9657 9.89904 5.85069 10.2602 6.37475ZM10.7757 11.2907C10.1971 11.4762 9.65411 11.6957 9.56904 11.7784C9.24359 12.0952 9.48735 12.7015 9.94009 12.7015C10.2322 12.7015 12.2139 12.0218 12.3172 11.8862C12.4593 11.6997 12.4375 11.296 12.2781 11.1597C12.017 10.9366 11.8293 10.953 10.7757 11.2907ZM11.0068 13.4861C10.7043 13.6341 10.6009 13.8984 10.6431 14.4152C10.6852 14.9313 10.8601 15.1408 11.2489 15.1408C11.6472 15.1408 11.7885 14.9143 11.7885 14.276C11.7885 13.8382 11.7586 13.6906 11.6514 13.599C11.4418 13.4198 11.2209 13.3812 11.0068 13.4861ZM18.6031 13.4424C18.2824 13.5551 18.2115 13.706 18.2115 14.276C18.2115 14.7343 18.2399 14.8636 18.3681 14.9883C18.5659 15.1808 18.9225 15.184 19.1618 14.9954C19.3239 14.8677 19.3463 14.7849 19.3468 14.3117C19.3472 13.8727 19.3183 13.7462 19.1906 13.6265C19.0101 13.4574 18.7725 13.3829 18.6031 13.4424ZM5.79304 16.9618L6.33813 17.0083L6.44019 17.5038C6.65983 18.57 7.09463 19.5799 7.76051 20.5704C8.21576 21.2476 9.46197 22.4642 10.1241 22.8778L10.6122 23.1827L10.6129 24.6407C10.6134 25.7996 10.588 26.1593 10.4891 26.3939C10.3589 26.7026 9.85972 27.2608 9.7138 27.2608C9.59129 27.2608 8.90051 26.5504 8.38878 25.8982C6.51633 23.5116 5.30317 20.4493 5.00552 17.358C4.95398 16.8227 4.95891 16.7962 5.09959 16.854C5.18121 16.8877 5.49327 16.9361 5.79304 16.9618ZM12.7014 17.8719C12.6301 17.9486 12.5718 18.1356 12.5718 18.2876C12.5718 18.5269 12.6207 18.6003 12.9363 18.8348C13.9783 19.6091 16.0217 19.6091 17.0637 18.8348C17.3846 18.5964 17.4282 18.5294 17.4282 18.2744C17.4282 17.6932 16.9929 17.5825 16.2717 17.9802C15.8437 18.2162 15.7835 18.228 15 18.228C14.2165 18.228 14.1563 18.2162 13.7283 17.9802C13.2225 17.7012 12.8925 17.6665 12.7014 17.8719ZM8.3121 29.4904C9.41615 31.6179 11.6177 33.1179 14.1098 33.4408C15.8365 33.6646 17.7989 33.1859 19.2769 32.1804C19.5567 31.9901 19.8103 31.8348 19.8406 31.8353C19.8955 31.8362 20.4228 32.7098 20.4675 32.874C20.5013 32.998 19.5237 33.6107 18.6673 34.0022C14.4106 35.9485 9.25087 34.173 7.09706 30.0209C6.91824 29.6761 6.87743 29.5349 6.94972 29.5105C7.00463 29.4919 7.27871 29.3921 7.55873 29.2887C7.83876 29.1854 8.07609 29.0985 8.08612 29.0956C8.09615 29.0926 8.19782 29.2703 8.3121 29.4904ZM27.1877 30.9827C27.3559 31.0675 27.6168 31.2416 27.7676 31.3695L28.0418 31.6022L27.8719 31.7373C27.7784 31.8117 27.3818 32.1408 26.9907 32.4687L26.2794 33.0649V31.8432V30.6215L26.5807 30.725C26.7464 30.7819 27.0196 30.8979 27.1877 30.9827Z" fill="white"/>
</svg>
