<svg width="15" height="16" viewBox="0 0 15 16" fill="none" xmlns="http://www.w3.org/2000/svg">
<path fill-rule="evenodd" clip-rule="evenodd" d="M3.22345 0.834137C2.38349 0.959373 1.71925 1.29545 1.11274 1.90206C0.488947 2.52592 0.146589 3.22244 0.0332604 4.09825C-0.0110868 4.441 -0.0110868 12.1392 0.0332604 12.482C0.146589 13.3578 0.488947 14.0543 1.11274 14.6781C1.73653 15.302 2.43296 15.6444 3.30866 15.7578C3.65137 15.8021 11.3486 15.8021 11.6913 15.7578C12.567 15.6444 13.2635 15.302 13.8873 14.6781C14.5111 14.0543 14.8534 13.3578 14.9667 12.482C15.0111 12.1392 15.0111 4.441 14.9667 4.09825C14.8534 3.22244 14.5111 2.52592 13.8873 1.90206C13.2635 1.27819 12.567 0.93579 11.6913 0.822448C11.316 0.773877 3.5557 0.784569 3.22345 0.834137ZM12.003 2.15906C12.3325 2.27384 12.4064 2.3109 12.6774 2.49745C13.1126 2.79696 13.4545 3.26184 13.6269 3.78825L13.7244 4.08626V8.2901C13.7244 12.3136 13.7221 12.5015 13.6697 12.6697C13.4713 13.3068 13.134 13.7766 12.6311 14.1168C12.4164 14.2621 12.2276 14.3497 11.9217 14.4463L11.7033 14.5153H7.5H3.29668L2.9987 14.4177C2.17772 14.1489 1.60375 13.5475 1.33031 12.6697C1.27791 12.5015 1.27557 12.3136 1.27557 8.2901C1.27557 4.2666 1.27791 4.07874 1.33031 3.91049C1.53869 3.24148 1.90121 2.75586 2.44541 2.41662C2.6738 2.27428 3.06551 2.12136 3.30892 2.07953C3.38274 2.06684 5.30827 2.05838 7.58787 2.06069L11.7326 2.06491L12.003 2.15906ZM11.3665 3.3221C11.1577 3.36734 11.0384 3.43222 10.8981 3.57682C10.7067 3.77401 10.6487 3.92699 10.6494 4.23274C10.6499 4.46071 10.6604 4.51623 10.7274 4.64287C10.8889 4.9483 11.1621 5.12694 11.5016 5.14912C11.7493 5.16529 11.8813 5.12934 12.0907 4.98861C12.6736 4.59691 12.6066 3.70314 11.9717 3.401C11.7548 3.29773 11.5825 3.27529 11.3665 3.3221ZM7.02065 4.57154C5.60528 4.76773 4.3993 5.75444 3.95878 7.0767C3.80828 7.52843 3.76698 7.78974 3.76698 8.2901C3.76698 8.79081 3.80814 9.05098 3.95937 9.50584C4.31189 10.5661 5.22628 11.4784 6.29252 11.8337C6.73828 11.9822 7.00131 12.0236 7.5 12.0236C7.99869 12.0236 8.26172 11.9822 8.70748 11.8337C9.77372 11.4784 10.6881 10.5661 11.0406 9.50584C11.1919 9.05098 11.233 8.79081 11.233 8.2901C11.233 7.63351 11.1053 7.09753 10.8214 6.56289C10.2811 5.54554 9.34715 4.84627 8.21764 4.6134C7.93574 4.55528 7.29865 4.53298 7.02065 4.57154ZM8.25367 5.91319C8.56609 6.01695 8.65054 6.05758 8.89134 6.21994C9.38271 6.55129 9.7156 7.01008 9.90553 7.6176C9.9647 7.80691 9.97378 7.89655 9.97378 8.2901C9.97378 8.77367 9.93901 8.95085 9.76842 9.33666C9.55113 9.82803 9.03657 10.342 8.54368 10.56C8.16084 10.7293 7.98269 10.7642 7.5 10.7642C7.01731 10.7642 6.83916 10.7293 6.45632 10.56C5.96343 10.342 5.44887 9.82803 5.23158 9.33666C5.06099 8.95085 5.02622 8.77367 5.02622 8.2901C5.02622 7.89655 5.0353 7.80691 5.09447 7.6176C5.19415 7.29879 5.28179 7.11481 5.44992 6.87158C5.78109 6.39249 6.24472 6.05955 6.81294 5.89277C7.10047 5.8084 7.14516 5.80386 7.58787 5.81417C7.93624 5.82229 8.0155 5.83409 8.25367 5.91319Z" fill="#C7C8D3"/>
</svg>
