<?xml version="1.0" encoding="UTF-8" standalone="no"?>
<svg
   xmlns:dc="http://purl.org/dc/elements/1.1/"
   xmlns:cc="http://creativecommons.org/ns#"
   xmlns:rdf="http://www.w3.org/1999/02/22-rdf-syntax-ns#"
   xmlns:svg="http://www.w3.org/2000/svg"
   xmlns="http://www.w3.org/2000/svg"
   xmlns:sodipodi="http://sodipodi.sourceforge.net/DTD/sodipodi-0.dtd"
   xmlns:inkscape="http://www.inkscape.org/namespaces/inkscape"
   version="1.1"
   id="Слой_1"
   x="0px"
   y="0px"
   viewBox="0 0 841.9 595.3"
   style="enable-background:new 0 0 841.9 595.3;"
   xml:space="preserve"
   sodipodi:docname="logo.svgz"><metadata
   id="metadata69"><rdf:RDF><cc:Work
       rdf:about=""><dc:format>image/svg+xml</dc:format><dc:type
         rdf:resource="http://purl.org/dc/dcmitype/StillImage" /></cc:Work></rdf:RDF></metadata><defs
   id="defs67" /><sodipodi:namedview
   pagecolor="#ffffff"
   bordercolor="#666666"
   borderopacity="1"
   objecttolerance="10"
   gridtolerance="10"
   guidetolerance="10"
   inkscape:pageopacity="0"
   inkscape:pageshadow="2"
   inkscape:window-width="640"
   inkscape:window-height="480"
   id="namedview65" />
<style
   type="text/css"
   id="style2">
	.st0{fill:#FFFFFF;}
</style>
<g
   id="g62">
	<path
   class="st0"
   d="m 601.2,298.6 c -13.1,0 -23.8,-10.7 -23.8,-23.8 0,-13.1 10.7,-23.8 23.8,-23.8 13.1,0 23.8,10.7 23.8,23.8 0,13.1 -10.7,23.8 -23.8,23.8 z m 0,-38 c -7.8,0 -14.2,6.4 -14.2,14.2 0,7.8 6.4,14.2 14.2,14.2 7.8,0 14.2,-6.4 14.2,-14.2 0,-7.8 -6.4,-14.2 -14.2,-14.2 z"
   id="path4" />
	<path
   class="st0"
   d="m 655.8,298.6 c -13.1,0 -23.8,-10.7 -23.8,-23.8 0,-13.1 10.7,-23.8 23.8,-23.8 13.1,0 23.8,10.7 23.8,23.8 0,13.1 -10.7,23.8 -23.8,23.8 z m 0,-38 c -7.8,0 -14.2,6.4 -14.2,14.2 0,7.8 6.4,14.2 14.2,14.2 7.8,0 14.2,-6.4 14.2,-14.2 0,-7.8 -6.4,-14.2 -14.2,-14.2 z"
   id="path6" />
	<path
   class="st0"
   d="m 272.3,298.9 c -11,0 -20,-9 -20,-20 v -27.5 h 9.6 v 27.5 c 0,5.7 4.6,10.3 10.3,10.3 5.7,0 10.3,-4.6 10.3,-10.3 v -27.5 h 9.6 v 27.5 c 0.2,11 -8.7,20 -19.8,20 z"
   id="path8" />
	<path
   class="st0"
   d="m 232.3,225.7 h 10.4 v 72.2 h -10.4 v -31.7 h -32.4 v 31.7 h -10.4 v -72.2 h 10.4 v 30.7 h 32.4 z"
   id="path10" />
	<path
   id="polygon12"
   style="fill:#ffffff"
   d="m 698.8,222.8 h -9.9 V 298 h 16.6 v -9.6 h -6.7 z"
   class="st0" />
	<path
   class="st0"
   d="M 329,305.7 V 299 c 11.3,-2 19.9,-11.9 19.9,-23.8 0,-0.2 0,-0.3 0,-0.5 v 0 -23.3 h -9.6 v 4.5 c -4.1,-3.1 -9.1,-4.9 -14.6,-4.9 -13.3,0 -24.2,10.9 -24.2,24.2 0,11.5 8.1,21.2 18.9,23.6 v 7 c -10.8,2.2 -19,11.9 -19,23.3 0,13.1 10.7,23.8 23.8,23.8 13.1,0 23.8,-10.7 23.8,-23.8 0,-11.5 -8.2,-21.1 -19,-23.4 z m -18.9,-30.5 c 0,-8 6.5,-14.6 14.6,-14.6 8,0 14.6,6.5 14.6,14.6 0,8 -6.5,14.6 -14.6,14.6 -8,-0.1 -14.6,-6.6 -14.6,-14.6 z m 14.1,68.1 c -7.8,0 -14.2,-6.4 -14.2,-14.2 0,-7.8 6.4,-14.2 14.2,-14.2 7.8,0 14.2,6.4 14.2,14.2 0,7.8 -6.4,14.2 -14.2,14.2 z"
   id="path14" />
	<g
   id="g18">
		<path
   class="st0"
   d="m 377.7,271 -4.9,-1 c -3.6,-0.7 -5.9,-2.4 -5.9,-5.4 0,-3 3,-5.1 6.9,-5.1 2.8,0 5.2,1.1 6.3,2.9 l 8,-4.5 c -3.1,-4.5 -8.4,-7.1 -14.3,-7.1 -7.9,0 -16.3,4.9 -16.3,13.9 0,7.4 5.4,12.2 13.4,14.2 1.6,0.4 3.3,0.8 4.9,1.1 4,0.7 5.9,2.2 5.9,5 0,3 -2.5,5.6 -7.4,5.6 -3.5,0 -6.4,-1.8 -8.1,-4.6 l -8.2,4.5 c 3.1,5.5 9,8.8 16.3,8.8 9.4,0 16.8,-6.4 16.8,-14.4 0,-7.8 -5.7,-12.2 -13.4,-13.9 z"
   id="path16" />
	</g>
	<path
   class="st0"
   d="m 451.3,257.2 c -2.6,-0.6 -5.2,-1.2 -7.9,-1.9 -7.9,-2.1 -11.4,-5.9 -11.4,-11.4 0,-5.9 4.6,-10.4 11.9,-10.4 5.3,0 9.6,2.8 11.5,6.8 l 9.4,-5.2 c -3.8,-6.8 -11.7,-11.3 -20.9,-11.3 -12.5,0 -22.3,8.2 -22.3,19.6 0,12.4 8.4,18.8 17.8,21.7 2.5,0.8 5.5,1.6 7.9,2.1 4.9,1 11.4,3.5 11.4,10.9 0,6.9 -5.4,11.6 -13.9,11.6 -5.9,0 -12,-3.7 -14.1,-10.2 l -9.6,5.4 c 3.6,8.2 13.1,14.8 23.7,14.8 15.3,0 24.2,-10.7 24.2,-21.6 0.1,-12.4 -7.8,-18.5 -17.7,-20.9 z"
   id="path20" />
	<path
   class="st0"
   d="m 510.7,286.4 c -2.3,2.3 -5.5,3.9 -9.4,3.9 -9.4,0 -14.5,-6.9 -14.5,-15.3 0,-8.4 5.1,-15.3 14.5,-15.3 3.8,0 7.1,1.7 9.3,3.9 l 8,-4.5 c -4.1,-5 -10.1,-8.3 -17.8,-8.3 -12.5,0 -23.8,9.9 -23.8,24.2 0,14.3 11.3,24.2 23.8,24.2 7.6,0 13.6,-3.2 17.7,-8.1 z"
   id="path22" />
	<path
   class="st0"
   d="m 548.5,250.6 c -4.2,0 -8.1,1.2 -11.3,3.2 v -30.7 h -9.6 V 298 h 0.1 9.6 v -27.5 c 0,-5.7 5,-10.3 11.2,-10.3 6.2,0 11.2,4.6 11.2,10.3 V 298 h 9.6 v -27.5 c 0.1,-11 -9.3,-19.9 -20.8,-19.9 z"
   id="path24" />
	<g
   id="g60">
		<path
   class="st0"
   d="m 435.7,315 h 2.7 v 13 h -17.1 v -13 h 2.7 v 10.5 h 4.5 V 315 h 2.7 v 10.5 h 4.5 z"
   id="path26" />
		<path
   class="st0"
   d="m 450.5,315 h 3.6 l -6.2,6.2 6.5,6.7 h -3.6 l -5.5,-5.5 v 5.5 h -2.8 v -13 h 2.8 v 5.2 z"
   id="path28" />
		<path
   class="st0"
   d="m 461.8,314.7 c 3.6,0 6.8,2.8 6.8,6.8 0,4 -3.2,6.8 -6.8,6.8 -3.6,0 -6.8,-2.8 -6.8,-6.8 0,-4.1 3.2,-6.8 6.8,-6.8 z m 0,11 c 2.6,0 4,-1.9 4,-4.3 0,-2.3 -1.4,-4.3 -4,-4.3 -2.6,0 -4,1.9 -4,4.3 0,2.4 1.4,4.3 4,4.3 z"
   id="path30" />
		<path
   class="st0"
   d="m 472.3,315 h 10.2 v 13 h -2.8 V 317.5 H 475 v 6.8 c 0,2.8 -1.7,4.3 -4.3,4.3 l -0.4,-0.3 v -2.5 h 0.6 c 0.8,0 1.4,-0.6 1.4,-1.4 z"
   id="path32" />
		<path
   class="st0"
   d="m 498.9,327.9 h -2.5 l -0.3,-1.1 -0.1,-0.1 -0.1,0.1 c -0.8,0.8 -2.2,1.4 -3.6,1.4 -3.6,0 -6.6,-2.8 -6.6,-6.8 0,-4 3,-6.8 6.6,-6.8 1.4,0 2.8,0.6 3.6,1.4 l 0.1,0.1 0.1,-0.1 0.3,-1.1 h 2.5 z m -6.5,-10.7 c -2.6,0 -4,1.9 -4,4.3 0,2.3 1.4,4.3 4,4.3 2.3,0 4,-1.9 4,-4.3 0.1,-2.4 -1.6,-4.3 -4,-4.3 z"
   id="path34" />
		<g
   id="g58">
			<path
   class="st0"
   d="m 429.3,339.7 h 3.6 l -6.2,6.2 6.5,6.7 h -3.6 l -5.5,-5.5 v 5.5 h -2.8 v -13 h 2.8 v 5.2 z"
   id="path36" />
			<path
   class="st0"
   d="m 440.7,339.4 c 3.6,0 6.8,2.8 6.8,6.8 0,4 -3.2,6.8 -6.8,6.8 -3.6,0 -6.8,-2.8 -6.8,-6.8 0,-4 3.2,-6.8 6.8,-6.8 z m 0,11 c 2.6,0 4,-1.9 4,-4.3 0,-2.3 -1.4,-4.3 -4,-4.3 -2.6,0 -4,1.9 -4,4.3 0,2.4 1.3,4.3 4,4.3 z"
   id="path38" />
			<path
   class="st0"
   d="m 451.2,339.7 h 10.2 v 13 h -2.8 v -10.5 h -4.7 v 6.8 c 0,2.8 -1.7,4.3 -4.3,4.3 l -0.4,-0.3 v -2.5 h 0.6 c 0.8,0 1.4,-0.6 1.4,-1.4 z"
   id="path40" />
			<path
   class="st0"
   d="m 471.3,339.4 c 3.6,0 6.8,2.8 6.8,6.8 0,4 -3.2,6.8 -6.8,6.8 -3.6,0 -6.8,-2.8 -6.8,-6.8 0.1,-4 3.2,-6.8 6.8,-6.8 z m 0,11 c 2.6,0 4,-1.9 4,-4.3 0,-2.3 -1.4,-4.3 -4,-4.3 -2.6,0 -4,1.9 -4,4.3 0,2.4 1.4,4.3 4,4.3 z"
   id="path42" />
			<path
   class="st0"
   d="m 481.3,339.7 h 2.5 l 0.2,1.1 0.2,0.1 0.1,-0.1 c 0.8,-0.8 2.2,-1.4 3.6,-1.4 3.6,0 6.6,2.8 6.6,6.8 0,4 -3,6.8 -6.6,6.8 -1.4,0 -2.8,-0.6 -3.6,-1.4 l -0.1,-0.1 -0.2,0.1 v 7 h -2.7 z m 6.5,10.7 c 2.6,0 4,-1.9 4,-4.3 0,-2.3 -1.4,-4.3 -4,-4.3 -2.3,0 -4,1.9 -4,4.3 0,2.4 1.6,4.3 4,4.3 z"
   id="path44" />
			<path
   class="st0"
   d="m 497.7,339.7 h 2.7 v 8.8 l 5.2,-8.8 h 3.2 v 13 H 506 v -8.8 l -5.2,8.8 h -3.2 v -13 z"
   id="path46" />
			<path
   class="st0"
   d="m 518.7,350.4 c 1.7,0 2.9,-1.1 3.4,-2.2 l 2.3,1.4 c -1.1,1.9 -3.2,3.3 -5.8,3.3 -3.5,0 -6.6,-2.8 -6.6,-6.8 0,-4 3.1,-6.8 6.6,-6.8 2.6,0 4.7,1.4 5.8,3.3 l -2.3,1.4 c -0.4,-1.1 -1.7,-2.2 -3.3,-2.2 -2.6,0 -4.1,1.9 -4.1,4.3 -0.1,2.4 1.4,4.3 4,4.3 z"
   id="path48" />
			<path
   class="st0"
   d="m 526.1,339.7 h 11 v 2.5 H 533 v 10.5 h -2.8 v -10.5 h -4.1 z"
   id="path50" />
			<path
   class="st0"
   d="m 540.1,339.7 h 2.7 v 8.8 l 5.2,-8.8 h 3.2 v 13 h -2.7 v -8.8 l -5.2,8.8 h -3.2 z"
   id="path52" />
			<path
   class="st0"
   d="m 563.1,339.7 h 3.6 l -6.2,6.2 6.5,6.7 h -3.6 l -5.5,-5.5 v 5.5 h -2.8 v -13 h 2.8 v 5.2 z"
   id="path54" />
			<path
   class="st0"
   d="m 569.1,339.7 h 2.7 v 8.8 l 5.2,-8.8 h 3.2 v 13 h -2.7 v -8.8 l -5.2,8.8 h -3.2 z"
   id="path56" />
		</g>
	</g>
</g>
</svg>
