<svg id="Слой_1" data-name="Слой 1" xmlns="http://www.w3.org/2000/svg" viewBox="0 0 516 135.8"><defs><style>.cls-1{fill:#fff;}</style></defs><title>лого полный  белый </title><path class="cls-1" d="M498.2-94.4a23.86,23.86,0,0,1-23.8-23.8A23.86,23.86,0,0,1,498.2-142,23.86,23.86,0,0,1,522-118.2,23.86,23.86,0,0,1,498.2-94.4Zm0-38A14.25,14.25,0,0,0,484-118.2,14.25,14.25,0,0,0,498.2-104a14.25,14.25,0,0,0,14.2-14.2A14.25,14.25,0,0,0,498.2-132.4Z" transform="translate(-86.5 170.2)"/><path class="cls-1" d="M552.8-94.4A23.86,23.86,0,0,1,529-118.2,23.86,23.86,0,0,1,552.8-142a23.86,23.86,0,0,1,23.8,23.8A23.86,23.86,0,0,1,552.8-94.4Zm0-38a14.25,14.25,0,0,0-14.2,14.2A14.25,14.25,0,0,0,552.8-104,14.25,14.25,0,0,0,567-118.2,14.25,14.25,0,0,0,552.8-132.4Z" transform="translate(-86.5 170.2)"/><path class="cls-1" d="M169.3-94.1a20.06,20.06,0,0,1-20-20v-27.5h9.6v27.5a10.29,10.29,0,0,0,10.3,10.3,10.29,10.29,0,0,0,10.3-10.3v-27.5h9.6v27.5A19.7,19.7,0,0,1,169.3-94.1Z" transform="translate(-86.5 170.2)"/><path class="cls-1" d="M129.3-167.3h10.4v72.2H129.3v-31.7H96.9v31.7H86.5v-72.2H96.9v30.7h32.4v-30.7Z" transform="translate(-86.5 170.2)"/><polygon class="cls-1" points="516 65.6 509.3 65.6 509.3 0 499.4 0 499.4 75.2 516 75.2 516 65.6"/><path class="cls-1" d="M226-87.3V-94a24.18,24.18,0,0,0,19.9-23.8v-.5h0v-23.3h-9.6v4.5a24,24,0,0,0-14.6-4.9,24.28,24.28,0,0,0-24.2,24.2,24.23,24.23,0,0,0,18.9,23.6v7a23.9,23.9,0,0,0-19,23.3,23.86,23.86,0,0,0,23.8,23.8A23.86,23.86,0,0,0,245-63.9,24,24,0,0,0,226-87.3Zm-18.9-30.5a14.62,14.62,0,0,1,14.6-14.6,14.62,14.62,0,0,1,14.6,14.6,14.62,14.62,0,0,1-14.6,14.6A14.75,14.75,0,0,1,207.1-117.8Zm14.1,68.1A14.25,14.25,0,0,1,207-63.9a14.25,14.25,0,0,1,14.2-14.2,14.25,14.25,0,0,1,14.2,14.2A14.25,14.25,0,0,1,221.2-49.7Z" transform="translate(-86.5 170.2)"/><path class="cls-1" d="M274.7-122l-4.9-1c-3.6-.7-5.9-2.4-5.9-5.4s3-5.1,6.9-5.1c2.8,0,5.2,1.1,6.3,2.9l8-4.5a17.09,17.09,0,0,0-14.3-7.1c-7.9,0-16.3,4.9-16.3,13.9,0,7.4,5.4,12.2,13.4,14.2,1.6.4,3.3.8,4.9,1.1,4,.7,5.9,2.2,5.9,5,0,3-2.5,5.6-7.4,5.6a9.32,9.32,0,0,1-8.1-4.6l-8.2,4.5c3.1,5.5,9,8.8,16.3,8.8,9.4,0,16.8-6.4,16.8-14.4C288.1-115.9,282.4-120.3,274.7-122Z" transform="translate(-86.5 170.2)"/><path class="cls-1" d="M348.3-135.8c-2.6-.6-5.2-1.2-7.9-1.9-7.9-2.1-11.4-5.9-11.4-11.4,0-5.9,4.6-10.4,11.9-10.4a12.45,12.45,0,0,1,11.5,6.8l9.4-5.2c-3.8-6.8-11.7-11.3-20.9-11.3-12.5,0-22.3,8.2-22.3,19.6,0,12.4,8.4,18.8,17.8,21.7,2.5.8,5.5,1.6,7.9,2.1,4.9,1,11.4,3.5,11.4,10.9,0,6.9-5.4,11.6-13.9,11.6a14.87,14.87,0,0,1-14.1-10.2l-9.6,5.4c3.6,8.2,13.1,14.8,23.7,14.8,15.3,0,24.2-10.7,24.2-21.6C366.1-127.3,358.2-133.4,348.3-135.8Z" transform="translate(-86.5 170.2)"/><path class="cls-1" d="M407.7-106.6a13.1,13.1,0,0,1-9.4,3.9c-9.4,0-14.5-6.9-14.5-15.3s5.1-15.3,14.5-15.3a13.27,13.27,0,0,1,9.3,3.9l8-4.5a22.34,22.34,0,0,0-17.8-8.3A23.81,23.81,0,0,0,374-118a23.81,23.81,0,0,0,23.8,24.2,22.43,22.43,0,0,0,17.7-8.1Z" transform="translate(-86.5 170.2)"/><path class="cls-1" d="M445.5-142.4a21.33,21.33,0,0,0-11.3,3.2v-30.7h-9.6V-95h9.7v-27.5c0-5.7,5-10.3,11.2-10.3s11.2,4.6,11.2,10.3V-95h9.6v-27.5C466.4-133.5,457-142.4,445.5-142.4Z" transform="translate(-86.5 170.2)"/><path class="cls-1" d="M332.7-78h2.7v13H318.3V-78H321v10.5h4.5V-78h2.7v10.5h4.5V-78Z" transform="translate(-86.5 170.2)"/><path class="cls-1" d="M347.5-78h3.6l-6.2,6.2,6.5,6.7h-3.6l-5.5-5.5v5.5h-2.8v-13h2.8v5.2Z" transform="translate(-86.5 170.2)"/><path class="cls-1" d="M358.8-78.3a6.74,6.74,0,0,1,6.8,6.8,6.74,6.74,0,0,1-6.8,6.8,6.74,6.74,0,0,1-6.8-6.8A6.68,6.68,0,0,1,358.8-78.3Zm0,11c2.6,0,4-1.9,4-4.3s-1.4-4.3-4-4.3-4,1.9-4,4.3S356.2-67.3,358.8-67.3Z" transform="translate(-86.5 170.2)"/><path class="cls-1" d="M369.3-78h10.2v13h-2.8V-75.5H372v6.8a3.94,3.94,0,0,1-4.3,4.3l-.4-.3v-2.5h.6a1.37,1.37,0,0,0,1.4-1.4V-78Z" transform="translate(-86.5 170.2)"/><path class="cls-1" d="M395.9-65.1h-2.5l-.3-1.1-.1-.1-.1.1a5.33,5.33,0,0,1-3.6,1.4,6.58,6.58,0,0,1-6.6-6.8,6.58,6.58,0,0,1,6.6-6.8,5.33,5.33,0,0,1,3.6,1.4l.1.1.1-.1.3-1.1h2.5Zm-6.5-10.7c-2.6,0-4,1.9-4,4.3s1.4,4.3,4,4.3a4.09,4.09,0,0,0,4-4.3A4,4,0,0,0,389.4-75.8Z" transform="translate(-86.5 170.2)"/><path class="cls-1" d="M326.3-53.3h3.6l-6.2,6.2,6.5,6.7h-3.6l-5.5-5.5v5.5h-2.8v-13h2.8v5.2Z" transform="translate(-86.5 170.2)"/><path class="cls-1" d="M337.7-53.6a6.74,6.74,0,0,1,6.8,6.8,6.74,6.74,0,0,1-6.8,6.8,6.74,6.74,0,0,1-6.8-6.8A6.74,6.74,0,0,1,337.7-53.6Zm0,11c2.6,0,4-1.9,4-4.3s-1.4-4.3-4-4.3-4,1.9-4,4.3S335-42.6,337.7-42.6Z" transform="translate(-86.5 170.2)"/><path class="cls-1" d="M348.2-53.3h10.2v13h-2.8V-50.8h-4.7V-44a3.94,3.94,0,0,1-4.3,4.3l-.4-.3v-2.5h.6a1.37,1.37,0,0,0,1.4-1.4v-9.4Z" transform="translate(-86.5 170.2)"/><path class="cls-1" d="M368.3-53.6a6.74,6.74,0,0,1,6.8,6.8,6.74,6.74,0,0,1-6.8,6.8,6.74,6.74,0,0,1-6.8-6.8A6.8,6.8,0,0,1,368.3-53.6Zm0,11c2.6,0,4-1.9,4-4.3s-1.4-4.3-4-4.3-4,1.9-4,4.3S365.7-42.6,368.3-42.6Z" transform="translate(-86.5 170.2)"/><path class="cls-1" d="M378.3-53.3h2.5l.2,1.1.2.1.1-.1a5.33,5.33,0,0,1,3.6-1.4,6.58,6.58,0,0,1,6.6,6.8,6.58,6.58,0,0,1-6.6,6.8,5.33,5.33,0,0,1-3.6-1.4l-.1-.1-.2.1v7h-2.7Zm6.5,10.7c2.6,0,4-1.9,4-4.3s-1.4-4.3-4-4.3a4.09,4.09,0,0,0-4,4.3A4,4,0,0,0,384.8-42.6Z" transform="translate(-86.5 170.2)"/><path class="cls-1" d="M394.7-53.3h2.7v8.8l5.2-8.8h3.2v13H403v-8.8l-5.2,8.8h-3.2v-13Z" transform="translate(-86.5 170.2)"/><path class="cls-1" d="M415.7-42.6a3.75,3.75,0,0,0,3.4-2.2l2.3,1.4a6.64,6.64,0,0,1-5.8,3.3,6.64,6.64,0,0,1-6.6-6.8,6.64,6.64,0,0,1,6.6-6.8,6.64,6.64,0,0,1,5.8,3.3L419.1-49a3.6,3.6,0,0,0-3.3-2.2,4,4,0,0,0-4.1,4.3A3.86,3.86,0,0,0,415.7-42.6Z" transform="translate(-86.5 170.2)"/><path class="cls-1" d="M423.1-53.3h11v2.5H430v10.5h-2.8V-50.8h-4.1v-2.5Z" transform="translate(-86.5 170.2)"/><path class="cls-1" d="M437.1-53.3h2.7v8.8l5.2-8.8h3.2v13h-2.7v-8.8l-5.2,8.8h-3.2Z" transform="translate(-86.5 170.2)"/><path class="cls-1" d="M460.1-53.3h3.6l-6.2,6.2,6.5,6.7h-3.6l-5.5-5.5v5.5h-2.8v-13h2.8v5.2Z" transform="translate(-86.5 170.2)"/><path class="cls-1" d="M466.1-53.3h2.7v8.8l5.2-8.8h3.2v13h-2.7v-8.8l-5.2,8.8h-3.2Z" transform="translate(-86.5 170.2)"/></svg>