<svg width="12" height="12" viewBox="0 0 12 12" fill="none" xmlns="http://www.w3.org/2000/svg">
<g clip-path="url(#clip0_30_451)">
<path d="M10.4241 1.83936H1.00444C0.449464 1.83936 -2.28882e-05 2.29163 -2.28882e-05 2.84382V8.87061C-2.28882e-05 9.42607 0.452767 9.87507 1.00444 9.87507H10.4241C10.9744 9.87507 11.4285 9.42797 11.4285 8.87061V2.84382C11.4285 2.29261 10.9808 1.83936 10.4241 1.83936ZM10.2834 2.509C10.0782 2.71313 6.54647 6.22625 6.42453 6.34755C6.2348 6.53728 5.98257 6.64174 5.71426 6.64174C5.44596 6.64174 5.19373 6.53726 5.00337 6.34692C4.92136 6.26534 1.42862 2.79101 1.14511 2.509H10.2834ZM0.66962 8.73431V2.98054L3.56333 5.859L0.66962 8.73431ZM1.14554 9.20543L4.0381 6.33125L4.53049 6.82105C4.8467 7.13726 5.2671 7.31139 5.71426 7.31139C6.16143 7.31139 6.58183 7.13726 6.89741 6.82168L7.39042 6.33125L10.283 9.20543H1.14554ZM10.7589 8.73431L7.8652 5.859L10.7589 2.98054V8.73431Z" fill="#959494"/>
</g>
<defs>
<clipPath id="clip0_30_451">
<rect width="11.4286" height="11.4286" fill="white" transform="translate(-2.28882e-05 0.142822)"/>
</clipPath>
</defs>
</svg>
