<svg width="11" height="16" viewBox="0 0 11 16" fill="none" xmlns="http://www.w3.org/2000/svg">
<path fill-rule="evenodd" clip-rule="evenodd" d="M5.09347 0.00700112C3.68889 0.151701 2.55994 0.684322 1.61822 1.64657C-0.0411689 3.34214 -0.469436 5.89115 0.543254 8.04466C0.754953 8.49484 5.12724 15.722 5.27874 15.8722C5.46984 16.0616 5.77012 16.0375 5.93717 15.8194C6.06115 15.6574 10.2697 8.46524 10.4231 8.15316C10.6748 7.64091 10.8396 7.12921 10.9467 6.52726C11.0111 6.16522 11.0189 5.19912 10.9605 4.82215C10.7675 3.57682 10.243 2.51258 9.39542 1.64657C8.55212 0.784877 7.48352 0.23364 6.305 0.0523352C6.06124 0.014854 5.29546 -0.0138044 5.09347 0.00700112ZM6.14884 0.97513C7.10345 1.1112 8.06258 1.60205 8.74912 2.3059C9.39484 2.96792 9.81438 3.76764 10.0118 4.71265C10.1114 5.18973 10.1117 6.05656 10.0124 6.52726C9.92078 6.96186 9.78793 7.35279 9.60844 7.71615C9.5277 7.87962 8.58736 9.5033 7.51882 11.3243L5.57602 14.6353L3.55322 11.3043C2.44068 9.47229 1.46908 7.84865 1.39415 7.69616C1.09366 7.08476 0.95122 6.51212 0.924337 5.80767C0.84185 3.64543 2.18972 1.72766 4.2215 1.11639C4.83119 0.932956 5.50587 0.883524 6.14884 0.97513ZM5.00878 2.85157C3.9723 3.0524 3.1198 3.86344 2.83878 4.91601C2.74359 5.27264 2.7431 5.96379 2.83777 6.3239C3.04408 7.10841 3.5838 7.78238 4.29015 8.13767C4.72534 8.35658 4.97709 8.41393 5.50682 8.41493C6.03506 8.4159 6.28228 8.35962 6.72304 8.13792C7.4319 7.78138 7.96889 7.11085 8.17587 6.3239C8.27055 5.96379 8.27006 5.27264 8.17486 4.91601C7.91427 3.93993 7.13817 3.14807 6.19575 2.89668C5.87156 2.81021 5.32871 2.78959 5.00878 2.85157ZM5.8804 3.77734C6.17321 3.83975 6.51792 4.02782 6.74922 4.25136C6.98458 4.47884 7.12889 4.70141 7.24619 5.01794C7.31352 5.19959 7.32467 5.281 7.32651 5.60431C7.32877 6.00346 7.29684 6.1512 7.1371 6.48033C6.9145 6.93893 6.42864 7.32951 5.932 7.44912C4.79037 7.7241 3.67254 6.82473 3.67015 5.62931C3.66954 5.32317 3.71565 5.12025 3.85616 4.81101C4.07698 4.32501 4.56982 3.91587 5.08976 3.78697C5.28967 3.73738 5.67119 3.73275 5.8804 3.77734Z" fill="#959494"/>
</svg>
