<svg width="13" height="13" viewBox="0 0 13 13" fill="none" xmlns="http://www.w3.org/2000/svg">
<path d="M11.1174 8.22024C10.4439 8.22024 9.78264 8.11491 9.15601 7.90783C8.84896 7.8031 8.47149 7.89918 8.28409 8.09165L7.04725 9.02533C5.61287 8.25966 4.72931 7.37639 3.9741 5.95278L4.88031 4.74816C5.11575 4.51304 5.2002 4.16958 5.09902 3.84731C4.89105 3.21739 4.7854 2.55644 4.7854 1.88269C4.78543 1.39597 4.38946 1 3.90277 1H1.88266C1.39597 1 1 1.39597 1 1.88266C1 7.46144 5.53859 12 11.1174 12C11.6041 12 12 11.604 12 11.1173V9.10288C12 8.61621 11.604 8.22024 11.1174 8.22024Z" stroke="#959494"/>
</svg>
