<svg width="22" height="20" viewBox="0 0 22 20" fill="none" xmlns="http://www.w3.org/2000/svg">
<path d="M16.208 0.711999C17.792 0.711999 19.04 1.336 19.952 2.584C20.864 3.784 21.32 5.536 21.32 7.84C21.32 9.952 20.84 11.896 19.88 13.672C18.968 15.448 17.6 17.224 15.776 19C15.728 19.048 15.656 19.072 15.56 19.072C15.416 19.072 15.296 19 15.2 18.856C15.104 18.712 15.104 18.592 15.2 18.496C17.552 16.096 18.728 13.264 18.728 10C18.728 8.656 18.488 7.672 18.008 7.048C17.576 7.768 16.736 8.128 15.488 8.128C14.432 8.128 13.592 7.816 12.968 7.192C12.344 6.52 12.032 5.632 12.032 4.528C12.032 3.328 12.392 2.392 13.112 1.72C13.88 1.048 14.912 0.711999 16.208 0.711999ZM4.328 0.711999C5.912 0.711999 7.16 1.336 8.072 2.584C8.984 3.784 9.44 5.536 9.44 7.84C9.44 9.952 8.96 11.896 8 13.672C7.088 15.448 5.72 17.224 3.896 19C3.848 19.048 3.776 19.072 3.68 19.072C3.536 19.072 3.416 19 3.32 18.856C3.224 18.712 3.224 18.592 3.32 18.496C5.672 16.096 6.848 13.264 6.848 10C6.848 8.656 6.608 7.672 6.128 7.048C5.696 7.768 4.856 8.128 3.608 8.128C2.552 8.128 1.712 7.816 1.088 7.192C0.464 6.52 0.152 5.632 0.152 4.528C0.152 3.328 0.512 2.392 1.232 1.72C2 1.048 3.032 0.711999 4.328 0.711999Z" fill="white" fill-opacity="0.29"/>
</svg>
