<svg width="22" height="19" viewBox="0 0 22 19" fill="none" xmlns="http://www.w3.org/2000/svg">
<path d="M6.056 11.072C7.112 11.072 7.952 11.408 8.576 12.08C9.2 12.704 9.512 13.568 9.512 14.672C9.512 15.872 9.128 16.808 8.36 17.48C7.64 18.152 6.632 18.488 5.336 18.488C3.752 18.488 2.504 17.888 1.592 16.688C0.68 15.44 0.224 13.664 0.224 11.36C0.224 9.248 0.68 7.304 1.592 5.528C2.552 3.752 3.944 1.976 5.768 0.199997C5.816 0.151998 5.888 0.127998 5.984 0.127998C6.128 0.127998 6.248 0.199999 6.344 0.344C6.44 0.487998 6.44 0.607998 6.344 0.704C3.992 3.104 2.816 5.936 2.816 9.2C2.816 10.544 3.056 11.528 3.536 12.152C3.968 11.432 4.808 11.072 6.056 11.072ZM17.936 11.072C18.992 11.072 19.832 11.408 20.456 12.08C21.08 12.704 21.392 13.568 21.392 14.672C21.392 15.872 21.008 16.808 20.24 17.48C19.52 18.152 18.512 18.488 17.216 18.488C15.632 18.488 14.384 17.888 13.472 16.688C12.56 15.44 12.104 13.664 12.104 11.36C12.104 9.248 12.56 7.304 13.472 5.528C14.432 3.752 15.824 1.976 17.648 0.199997C17.696 0.151998 17.768 0.127998 17.864 0.127998C18.008 0.127998 18.128 0.199999 18.224 0.344C18.32 0.487998 18.32 0.607998 18.224 0.704C15.872 3.104 14.696 5.936 14.696 9.2C14.696 10.544 14.936 11.528 15.416 12.152C15.848 11.432 16.688 11.072 17.936 11.072Z" fill="white" fill-opacity="0.29"/>
</svg>
