<svg aria-hidden="true" style="position: absolute; width: 0; height: 0; overflow: hidden;" version="1.1" xmlns="http://www.w3.org/2000/svg" xmlns:xlink="http://www.w3.org/1999/xlink">
<defs>
<symbol id="icon-arrow__left" viewBox="0 0 32 32">
<path d="M7.973 21.928c0.098 0.123 0.090 0.303-0.024 0.417-0.122 0.122-0.321 0.122-0.443 0l-6.883-6.883c-0.122-0.122-0.122-0.32 0-0.442l6.883-6.883c0.019-0.019 0.040-0.036 0.063-0.049 0.122-0.076 0.285-0.059 0.389 0.049 0.12 0.124 0.117 0.322-0.008 0.442l-6.662 6.662 6.662 6.662c0.008 0.008 0.015 0.017 0.022 0.026z"></path>
<path d="M7.973 21.928l-0.337 0.262 0.004 0.004 0.334-0.266zM7.949 22.344v0zM7.506 22.344v0zM0.623 15.461v0zM0.623 15.019v0zM7.506 8.136l0.302 0.302 0-0.001-0.302-0.301zM7.57 8.087l0.216 0.368 0.008-0.005-0.224-0.363zM7.959 8.136v0zM7.951 8.578l-0.296-0.307-0.005 0.005 0.302 0.302zM1.289 15.24l-0.302-0.302-0.302 0.302 0.302 0.302 0.302-0.302zM7.951 21.902l0.307-0.296-0.005-0.005-0.302 0.302zM7.64 22.194c-0.036-0.045-0.033-0.11 0.008-0.151l0.603 0.603c0.269-0.269 0.287-0.694 0.055-0.984l-0.667 0.532zM7.648 22.043c0.044-0.044 0.116-0.044 0.16 0l-0.603 0.603c0.289 0.289 0.757 0.289 1.046 0l-0.603-0.603zM7.808 22.043l-6.883-6.883-0.603 0.603 6.883 6.883 0.603-0.603zM0.925 15.16c0.044 0.044 0.044 0.116 0 0.161l-0.604-0.603c-0.289 0.289-0.289 0.757 0 1.046l0.603-0.603zM0.925 15.32l6.883-6.883-0.603-0.603-6.883 6.883 0.603 0.603zM7.809 8.437c-0.007 0.007-0.015 0.013-0.023 0.018l-0.432-0.736c-0.054 0.032-0.105 0.071-0.15 0.116l0.604 0.602zM8.266 7.839c-0.246-0.255-0.631-0.294-0.92-0.115l0.449 0.726c-0.045 0.028-0.104 0.022-0.142-0.018l0.614-0.593zM8.248 8.885c0.294-0.284 0.302-0.752 0.018-1.046l-0.614 0.593c-0.044-0.045-0.042-0.117 0.003-0.161l0.593 0.614zM1.591 15.541l6.662-6.662-0.603-0.603-6.662 6.662 0.603 0.603zM8.252 21.6l-6.662-6.662-0.603 0.603 6.662 6.662 0.603-0.603zM8.31 21.666c-0.016-0.021-0.034-0.041-0.053-0.061l-0.614 0.593c-0.003-0.003-0.005-0.006-0.008-0.009l0.674-0.523z"></path>
<path d="M31.355 15.238c0 0.361-0.293 0.654-0.654 0.654h-28.791c-0.361 0-0.654-0.293-0.654-0.654s0.293-0.654 0.654-0.654h28.791c0.361 0 0.654 0.293 0.654 0.654z"></path>
</symbol>
<symbol id="icon-check" viewBox="0 0 32 32">
<path d="M27.983 2.941c-0.792 0.172-0.325-0.286-8.915 8.745l-7.985 8.396-3.004-3.163c-3.247-3.419-3.314-3.478-4.114-3.633-0.32-0.062-0.5-0.063-0.776-0.005-0.709 0.15-0.993 0.345-1.916 1.317-0.717 0.755-0.894 0.981-1.066 1.365-0.19 0.421-0.207 0.513-0.206 1.087 0.001 0.548 0.024 0.68 0.183 1.055 0.171 0.402 0.479 0.742 5.002 5.516 3.481 3.674 4.909 5.139 5.14 5.274 0.445 0.259 1.053 0.263 1.51 0.009 0.236-0.132 2.708-2.699 10.057-10.448 9.273-9.777 9.753-10.294 9.925-10.702 0.158-0.374 0.181-0.508 0.182-1.055 0.002-0.906-0.17-1.261-1.1-2.272-0.789-0.858-1.174-1.182-1.609-1.354-0.368-0.146-0.965-0.206-1.307-0.132z"></path>
</symbol>
<symbol id="icon-shevron" viewBox="0 0 32 32">
<path d="M24.219 17.462l-13.942 13.664c-0.887 0.87-2.325 0.87-3.211 0s-0.887-2.278 0-3.147l12.337-12.090-12.337-12.090c-0.887-0.869-0.887-2.278 0-3.147s2.324-0.869 3.211 0l13.942 13.664c0.443 0.435 0.665 1.004 0.665 1.573s-0.222 1.139-0.665 1.573z"></path>
</symbol>
<symbol id="icon-clock-time" viewBox="0 0 32 32">
<path d="M14.56 0.038c-3.091 0.303-5.948 1.442-8.453 3.37-1.22 0.939-2.804 2.704-3.719 4.144-0.395 0.622-1.165 2.197-1.441 2.949-0.308 0.841-0.637 2.126-0.798 3.123-0.198 1.22-0.198 3.537 0 4.758 0.28 1.725 0.722 3.12 1.48 4.664 0.828 1.687 1.688 2.882 3.066 4.26s2.574 2.238 4.261 3.066c1.544 0.757 2.939 1.2 4.665 1.48 1.221 0.198 3.538 0.198 4.759 0 1.726-0.28 3.12-0.722 4.665-1.48 1.687-0.827 2.883-1.688 4.261-3.066s2.239-2.574 3.066-4.26c0.767-1.563 1.215-2.984 1.482-4.695 0.195-1.255 0.195-3.44 0-4.695-0.266-1.711-0.715-3.133-1.482-4.695-0.828-1.687-1.688-2.882-3.066-4.26s-2.574-2.238-4.261-3.066c-1.543-0.757-2.965-1.208-4.633-1.47-0.92-0.145-2.976-0.212-3.851-0.126zM18.004 2.263c2.347 0.357 4.465 1.246 6.386 2.68 0.766 0.572 2.102 1.91 2.666 2.672 1.482 1.999 2.326 4.016 2.697 6.448 0.151 0.985 0.151 2.896 0 3.881-0.369 2.417-1.242 4.509-2.689 6.443-0.578 0.772-1.913 2.108-2.674 2.677-2.52 1.881-5.277 2.802-8.39 2.802s-5.87-0.921-8.39-2.802c-0.764-0.57-2.102-1.908-2.672-2.672-1.881-2.519-2.802-5.276-2.802-8.388s0.922-5.872 2.801-8.384c0.578-0.772 1.913-2.108 2.674-2.677 1.987-1.483 4.279-2.418 6.637-2.708 0.293-0.036 0.631-0.077 0.751-0.092 0.444-0.054 2.368 0.023 3.006 0.12zM15.665 4.764c-0.292 0.104-0.502 0.293-0.632 0.567-0.086 0.181-0.097 0.88-0.097 5.94v5.734l4.493-0.002c2.471-0.001 4.603-0.027 4.738-0.058 0.337-0.078 0.542-0.242 0.713-0.57 0.264-0.506 0.048-1.154-0.468-1.411-0.227-0.112-0.445-0.12-3.794-0.137l-3.553-0.018v-4.632c0-3.771-0.016-4.67-0.085-4.836-0.109-0.261-0.416-0.52-0.715-0.603-0.288-0.080-0.303-0.079-0.599 0.026z"></path>
</symbol>
<symbol id="icon-phone" viewBox="0 0 32 32">
<path stroke-linejoin="miter" stroke-linecap="butt" stroke-miterlimit="4" stroke-width="2.4615" d="M27.366 20.234c-1.658 0-3.286-0.259-4.828-0.769-0.756-0.258-1.685-0.021-2.146 0.452l-3.045 2.298c-3.531-1.885-5.706-4.059-7.565-7.563l2.231-2.965c0.58-0.579 0.787-1.424 0.538-2.217-0.512-1.551-0.772-3.178-0.772-4.836 0-1.198-0.975-2.173-2.173-2.173h-4.973c-1.198 0-2.173 0.975-2.173 2.173 0 13.732 11.172 24.904 24.904 24.904 1.198 0 2.173-0.975 2.173-2.173v-4.959c0-1.198-0.975-2.173-2.173-2.173z"></path>
</symbol>
<symbol id="icon-mapa" viewBox="0 0 32 32">
<path d="M15.187 0.014c-2.809 0.289-5.067 1.355-6.95 3.279-3.319 3.391-4.175 8.489-2.15 12.796 0.423 0.9 9.168 15.355 9.471 15.655 0.382 0.379 0.983 0.331 1.317-0.106 0.248-0.324 8.665-14.708 8.972-15.332 0.503-1.024 0.833-2.048 1.047-3.252 0.129-0.724 0.144-2.656 0.028-3.41-0.386-2.491-1.435-4.619-3.13-6.351-1.687-1.723-3.824-2.826-6.181-3.188-0.488-0.075-2.019-0.132-2.423-0.091zM17.298 1.95c1.909 0.272 3.827 1.254 5.201 2.662 1.291 1.324 2.131 2.923 2.525 4.814 0.199 0.954 0.2 2.688 0.001 3.629-0.183 0.869-0.449 1.651-0.808 2.378-0.161 0.327-2.042 3.574-4.179 7.216l-3.886 6.622-4.046-6.662c-2.225-3.664-4.168-6.911-4.318-7.216-0.601-1.223-0.886-2.368-0.94-3.777-0.165-4.324 2.531-8.16 6.594-9.383 1.219-0.367 2.569-0.466 3.855-0.283zM15.018 5.703c-2.073 0.402-3.778 2.024-4.34 4.129-0.19 0.713-0.191 2.096-0.002 2.816 0.413 1.569 1.492 2.917 2.905 3.628 0.87 0.438 1.374 0.553 2.433 0.555 1.056 0.002 1.551-0.111 2.432-0.554 1.418-0.713 2.492-2.054 2.906-3.628 0.189-0.72 0.188-2.103-0.002-2.816-0.521-1.952-2.073-3.536-3.958-4.039-0.648-0.173-1.734-0.214-2.374-0.090zM16.761 7.555c0.586 0.125 1.275 0.501 1.738 0.948 0.471 0.455 0.759 0.9 0.994 1.533 0.135 0.363 0.157 0.526 0.161 1.173 0.005 0.798-0.059 1.094-0.379 1.752-0.445 0.917-1.417 1.698-2.41 1.938-2.283 0.55-4.519-1.249-4.524-3.64-0.001-0.612 0.091-1.018 0.372-1.637 0.442-0.972 1.427-1.79 2.467-2.048 0.4-0.099 1.163-0.108 1.581-0.019z"></path>
</symbol>
<symbol id="icon-whatsapp" viewBox="0 0 32 32">
<path d="M15.036 0.019c-0.103 0.015-0.456 0.056-0.783 0.093-5.261 0.589-10.083 3.917-12.461 8.6-2.257 4.445-2.229 9.835 0.075 14.372l0.372 0.732-1.126 4.086c-0.619 2.247-1.12 4.091-1.113 4.099s1.907-0.481 4.222-1.085l4.209-1.098 0.58 0.282c1.665 0.81 3.408 1.328 5.212 1.55 0.912 0.112 2.847 0.098 3.788-0.029 5.864-0.79 10.811-4.59 12.919-9.925 0.766-1.938 1.073-3.616 1.071-5.851-0.002-1.488-0.072-2.181-0.347-3.441-0.569-2.601-1.957-5.274-3.712-7.146-0.251-0.268-0.483-0.534-0.514-0.591-0.084-0.151-0.972-0.934-1.623-1.43-1.208-0.921-2.79-1.789-4.195-2.302-0.821-0.3-2.25-0.66-3.162-0.797-0.622-0.093-3.002-0.176-3.412-0.119zM18.292 2.794c2.81 0.488 5.188 1.717 7.204 3.725 1.951 1.943 3.168 4.296 3.692 7.135 0.158 0.857 0.192 2.873 0.065 3.84-0.43 3.269-1.978 6.143-4.438 8.245-2.388 2.040-5.227 3.153-8.311 3.259-2.512 0.086-4.757-0.468-7.015-1.732l-0.666-0.373-2.481 0.643c-1.402 0.364-2.481 0.614-2.48 0.577s0.295-1.131 0.655-2.432l0.654-2.364-0.271-0.42c-2.714-4.206-2.77-9.531-0.147-13.895 1.047-1.742 2.684-3.4 4.399-4.454 0.589-0.362 1.951-1.008 2.56-1.214 0.939-0.317 2.153-0.578 3.2-0.686 0.648-0.067 2.653 0.019 3.381 0.145zM9.839 8.61c-0.51 0.234-1.267 1.242-1.617 2.156-0.189 0.493-0.196 0.547-0.197 1.481-0.001 0.937 0.006 0.99 0.206 1.564 0.38 1.092 0.983 2.101 2.039 3.406 2.723 3.367 4.498 4.649 8.116 5.86 1.718 0.575 3.122 0.426 4.442-0.472 0.834-0.567 1.158-1.121 1.313-2.242 0.085-0.618 0.034-0.837-0.24-1.018-0.125-0.083-0.325-0.17-0.445-0.194s-0.711-0.281-1.314-0.572c-1.37-0.66-1.634-0.764-1.94-0.764-0.238 0-0.263 0.022-0.834 0.735-0.988 1.234-1.054 1.298-1.34 1.29-0.33-0.009-1.674-0.653-2.457-1.178-1.319-0.885-2.578-2.232-3.321-3.555-0.255-0.453-0.234-0.544 0.246-1.102 0.451-0.524 0.856-1.139 0.91-1.382 0.057-0.26-1.348-3.639-1.634-3.929l-0.2-0.203-0.742 0.001c-0.584 0.001-0.795 0.026-0.992 0.116z"></path>
</symbol>
<symbol id="icon-mail" viewBox="0 0 32 32">
<path d="M27.798 4.905h-25.119c-1.48 0-2.679 1.206-2.679 2.679v16.071c0 1.481 1.207 2.679 2.679 2.679h25.119c1.467 0 2.678-1.192 2.678-2.679v-16.071c0-1.47-1.194-2.679-2.678-2.679zM27.422 6.691c-0.547 0.544-9.965 9.913-10.29 10.236-0.506 0.506-1.179 0.785-1.894 0.785s-1.388-0.279-1.896-0.786c-0.219-0.218-9.533-9.482-10.289-10.234h24.369zM1.786 23.291v-15.343l7.717 7.676-7.717 7.668zM3.055 24.548l7.713-7.664 1.313 1.306c0.843 0.843 1.964 1.308 3.157 1.308s2.314-0.464 3.155-1.306l1.315-1.308 7.714 7.664h-24.367zM28.69 23.291l-7.717-7.668 7.717-7.676v15.343z"></path>
</symbol>
<symbol id="icon-arrow__right" viewBox="0 0 32 32">
<path d="M23.993 11.246l-1.848-1.848c-0.121-0.121-0.121-0.318 0-0.439s0.318-0.121 0.439 0l6.82 6.82c0.121 0.121 0.121 0.317 0 0.438l-6.82 6.82c-0.004 0.004-0.008 0.008-0.012 0.011-0.123 0.116-0.317 0.111-0.435-0.011s-0.116-0.314 0.002-0.433c0.002-0.002 0.004-0.004 0.006-0.006l6.601-6.6-4.752-4.753z"></path>
<path d="M23.993 11.246v0zM22.144 9.398v0zM22.144 8.959v0zM22.583 8.959v0zM29.404 15.779v0zM29.404 16.217v0zM22.583 23.038l-0.453-0.453-0.001 0.001 0.453 0.452zM22.572 23.049l-0.429-0.475-0.009 0.008 0.438 0.467zM22.137 23.038v0zM22.139 22.605l0.456 0.45 0.008-0.009-0.464-0.441zM22.144 22.599l0.452 0.453 0.001-0.001-0.452-0.453zM28.745 15.999l0.453 0.453 0.452-0.453-0.452-0.453-0.453 0.453zM24.445 10.794l-1.849-1.848-0.905 0.905 1.849 1.848 0.905-0.905zM22.597 8.945c0.129 0.129 0.129 0.337 0 0.466l-0.905-0.905c-0.371 0.371-0.371 0.973 0 1.344l0.905-0.905zM22.597 9.411c-0.129 0.129-0.337 0.129-0.466 0l0.905-0.905c-0.371-0.371-0.973-0.371-1.344 0l0.905 0.905zM22.131 9.411l6.82 6.82 0.905-0.905-6.82-6.82-0.905 0.905zM28.951 16.232c-0.129-0.129-0.129-0.338-0-0.467l0.905 0.905c0.371-0.371 0.371-0.972 0-1.343l-0.905 0.905zM28.951 15.765l-6.82 6.82 0.905 0.905 6.82-6.82-0.905-0.905zM22.13 22.586c0.004-0.004 0.008-0.008 0.013-0.012l0.858 0.95c0.012-0.011 0.025-0.023 0.036-0.035l-0.907-0.904zM21.676 23.483c0.361 0.374 0.955 0.388 1.333 0.033l-0.876-0.934c0.131-0.123 0.338-0.119 0.463 0.011l-0.921 0.889zM21.683 22.156c-0.361 0.366-0.366 0.955-0.007 1.327l0.921-0.889c0.125 0.129 0.123 0.334-0.003 0.461l-0.911-0.899zM22.602 23.046c-0.002 0.002-0.004 0.004-0.006 0.006l-0.904-0.906c-0.006 0.006-0.012 0.012-0.017 0.018l0.928 0.882zM22.597 23.052l6.601-6.6-0.905-0.905-6.601 6.6 0.905 0.905zM23.54 11.699l4.752 4.753 0.905-0.905-4.752-4.753-0.905 0.905z"></path>
<path d="M0 16v0c0-0.589 0.478-1.067 1.067-1.067h27.733c0.589 0 1.067 0.478 1.067 1.067v0c0 0.589-0.478 1.067-1.067 1.067h-27.733c-0.589 0-1.067-0.478-1.067-1.067z"></path>
</symbol>
<symbol id="icon-calendar" viewBox="0 0 32 32">
<path d="M6.081 0.119c-0.35 0.218-0.394 0.388-0.394 1.531v1.024h-4.298l-0.385 0.196c-0.448 0.228-0.715 0.53-0.889 1.005-0.123 0.335-0.124 0.494-0.108 13.498l0.016 13.159 0.214 0.402c0.232 0.437 0.516 0.703 0.986 0.924l0.302 0.142h28.973l0.35-0.167c0.426-0.204 0.751-0.525 0.98-0.968l0.172-0.333v-26.422l-0.175-0.363c-0.189-0.393-0.461-0.672-0.875-0.897-0.257-0.14-0.32-0.144-2.439-0.163l-2.175-0.019v-1.021c0-1.14-0.044-1.31-0.394-1.528-0.257-0.16-0.522-0.158-0.783 0.004-0.331 0.205-0.387 0.435-0.387 1.56v0.991h-17.521v-0.991c0-1.125-0.057-1.354-0.387-1.56-0.261-0.162-0.526-0.164-0.783-0.004zM5.687 4.764c0 0.441 0.026 0.601 0.122 0.762 0.188 0.314 0.395 0.424 0.726 0.386 0.517-0.059 0.716-0.391 0.716-1.194v-0.513h17.521v0.513c0 0.803 0.199 1.135 0.716 1.194 0.331 0.038 0.538-0.072 0.726-0.386 0.096-0.161 0.122-0.322 0.122-0.762l0-0.558h1.926c1.642 0 1.947 0.015 2.065 0.099l0.139 0.099v12.888c0 12.803-0.001 12.889-0.125 13.016s-0.209 0.128-14.33 0.128c-14.121 0-14.206-0.001-14.33-0.128s-0.125-0.213-0.125-10.211v-10.084h12.237c13.45 0 12.491 0.029 12.699-0.381 0.194-0.382 0.064-0.873-0.278-1.054-0.162-0.086-1.605-0.097-12.42-0.097h-12.237v-2.071c0-1.905 0.009-2.076 0.109-2.136 0.068-0.040 0.854-0.066 2.065-0.067l1.955-0.002 0 0.558zM27.848 8.643c-0.376 0.322-0.39 0.843-0.034 1.185 0.135 0.129 0.236 0.156 0.657 0.176 0.802 0.037 1.119-0.182 1.119-0.771 0-0.275-0.028-0.345-0.213-0.534-0.21-0.215-0.219-0.217-0.777-0.217-0.513 0-0.582 0.015-0.753 0.162zM22.176 15.307c-0.151 0.063-1.134 1.078-5.421 5.598-1.803 1.901-3.301 3.463-3.33 3.47s-0.833-0.534-1.788-1.203c-0.954-0.669-1.809-1.235-1.9-1.259-0.216-0.055-0.555 0.063-0.732 0.255-0.197 0.213-0.234 0.644-0.078 0.897 0.073 0.119 0.909 0.747 2.186 1.643 2.002 1.405 2.077 1.451 2.372 1.45 0.182-0 0.373-0.045 0.476-0.112 0.249-0.162 9.052-9.459 9.165-9.679 0.117-0.229 0.075-0.633-0.085-0.817-0.217-0.248-0.598-0.356-0.866-0.245z"></path>
</symbol>
<symbol id="icon-girl" viewBox="0 0 25 32">
<path d="M11.23 0.041c-4.106 0.504-7.245 3.424-8.035 7.472-0.094 0.482-0.11 0.989-0.108 3.534 0.002 2.989 0.027 3.446 0.263 4.66 0.472 2.427 1.634 4.866 3.11 6.528 0.327 0.368 0.441 0.538 0.385 0.572-0.044 0.026-1.009 0.365-2.145 0.752s-2.236 0.773-2.446 0.857c-1.051 0.421-1.761 1.174-2.11 2.237-0.138 0.421-0.144 0.529-0.144 2.773v2.335l0.152 0.12c0.206 0.163 0.433 0.15 0.622-0.034l0.158-0.153v-2.088c0-1.971 0.058-2.796 0.197-2.796 0.063 0 2.426 1.962 2.587 2.148 0.312 0.36 0.362 0.585 0.364 1.623 0.001 0.743 0.025 1.032 0.095 1.165 0.153 0.287 0.425 0.336 0.701 0.125l0.169-0.13v-1.079c0-1.799-0.075-1.932-2.015-3.549-0.747-0.623-1.367-1.154-1.378-1.18-0.024-0.060 0.4-0.386 0.69-0.53 0.176-0.088 2.287-0.845 2.355-0.845 0.010 0 0.119 0.204 0.243 0.453 0.871 1.751 2.497 3.208 4.374 3.919 1.031 0.39 1.823 0.533 2.961 0.534 1.71 0.001 3.243-0.437 4.556-1.3 0.243-0.16 0.467-0.291 0.497-0.291 0.069 0 0.511 0.85 0.756 1.454 0.233 0.573 0.371 1.178 0.428 1.878 0.040 0.485 0.064 0.563 0.207 0.672 0.269 0.206 0.543 0.139 0.714-0.173 0.1-0.182-0.005-1.24-0.191-1.933-0.265-0.985-0.482-1.434-1.589-3.274-1.354-2.252-1.654-3.069-1.74-4.748-0.046-0.897-0.060-0.972-0.196-1.079-0.192-0.151-0.485-0.147-0.646 0.010-0.115 0.111-0.129 0.208-0.128 0.891 0 1.154 0.192 2.025 0.741 3.373l0.119 0.293-0.157 0.13c-0.952 0.786-2.467 1.266-3.66 1.161-1.415-0.125-2.321-0.535-3.312-1.499-0.636-0.619-1.146-1.355-1.017-1.47 0.030-0.027 0.164-0.083 0.296-0.124 0.339-0.105 0.966-0.526 1.167-0.783 0.093-0.119 0.248-0.365 0.344-0.547 0.168-0.318 0.175-0.375 0.197-1.472 0.013-0.628 0.031-1.141 0.041-1.141s0.145 0.044 0.299 0.097c0.854 0.296 1.985 0.422 2.986 0.331 1.588-0.143 3.079-0.805 4.248-1.886 1.064-0.983 1.811-2.293 2.095-3.671l0.084-0.407 0.415-0.038c0.228-0.021 0.495-0.070 0.592-0.108l0.177-0.069v18.001l0.169 0.13c0.275 0.211 0.548 0.162 0.701-0.125 0.075-0.142 0.094-0.495 0.094-1.773v-1.596l0.935-0.784c0.514-0.431 0.959-0.784 0.987-0.784 0.14 0 0.198 0.82 0.198 2.796v2.088l0.158 0.153c0.189 0.184 0.416 0.197 0.622 0.034l0.152-0.12v-2.335c0-2.244-0.006-2.352-0.144-2.773-0.414-1.264-1.187-1.952-2.794-2.49-0.103-0.034-0.111-0.566-0.133-8.124-0.021-7.178-0.035-8.143-0.129-8.587-0.449-2.137-1.474-3.907-3.035-5.234-1.239-1.054-2.647-1.731-4.272-2.052-0.77-0.152-2.157-0.212-2.879-0.123zM13.882 1.071c2.95 0.594 5.291 2.579 6.239 5.289 0.325 0.931 0.419 1.547 0.46 3.014 0.038 1.375 0.037 1.379-0.258 1.226-0.080-0.041-0.646-0.092-1.329-0.118-1.312-0.051-2.144-0.188-3.085-0.511-3.213-1.102-5.983-3.615-7.732-7.015-0.302-0.587-0.364-0.754-0.295-0.797 0.719-0.45 2.141-0.98 2.979-1.111 0.247-0.039 0.522-0.082 0.611-0.097 0.342-0.057 1.921 0.022 2.41 0.121zM8.419 5.231c2.657 3.856 6.647 6.185 10.601 6.191 1.043 0.001 1.316 0.1 1.487 0.537 0.097 0.246 0.099 0.304 0.018 0.511-0.051 0.132-0.186 0.295-0.307 0.375-0.269 0.177-0.696 0.195-0.755 0.032-0.078-0.215-0.233-0.328-0.448-0.328-0.235 0-0.472 0.18-0.473 0.36-0.002 0.337-0.148 1.297-0.259 1.691-0.603 2.156-2.454 3.836-4.74 4.3-0.646 0.131-1.825 0.131-2.471 0-1.623-0.33-3.014-1.245-3.931-2.588-0.587-0.86-0.884-1.689-1.008-2.817-0.084-0.764-0.117-0.847-0.371-0.933-0.236-0.080-0.459 0.019-0.575 0.255-0.072 0.147-0.122 0.17-0.365 0.17-0.521 0-0.901-0.497-0.74-0.97 0.123-0.363 0.407-0.522 1.044-0.585 0.644-0.064 1.023-0.221 1.39-0.579 0.424-0.413 0.54-0.722 0.596-1.594 0.060-0.924 0.211-1.312 0.695-1.786 0.241-0.236 0.324-0.363 0.324-0.5 0-0.201-0.247-0.491-0.418-0.491-0.179 0-0.448 0.17-0.712 0.449-0.575 0.609-0.787 1.154-0.843 2.168-0.059 1.061-0.261 1.289-1.252 1.422-0.329 0.044-0.668 0.101-0.753 0.126l-0.154 0.045 0.038-1.308c0.022-0.736 0.082-1.538 0.137-1.835 0.299-1.591 1.105-3.095 2.263-4.222l0.556-0.542 0.444 0.832c0.244 0.457 0.686 1.184 0.982 1.614zM8.842 9.264c-0.475 0.152-0.92 0.332-0.99 0.4-0.267 0.26-0.067 0.757 0.304 0.757 0.24 0 1.866-0.558 1.95-0.669 0.117-0.153 0.099-0.484-0.032-0.596-0.214-0.183-0.368-0.17-1.233 0.107zM9.031 11.066c-0.248 0.121-0.333 0.338-0.298 0.762s0.178 0.595 0.497 0.595c0.327 0 0.443-0.186 0.443-0.71 0-0.359-0.025-0.48-0.113-0.556-0.172-0.147-0.353-0.179-0.529-0.093zM15.264 11.030c-0.263 0.092-0.321 0.216-0.321 0.684 0 0.376 0.023 0.482 0.129 0.584 0.162 0.158 0.455 0.161 0.651 0.006 0.133-0.105 0.151-0.173 0.152-0.561 0-0.36-0.023-0.464-0.128-0.562-0.148-0.139-0.343-0.2-0.482-0.151zM4.753 13.917l0.447 0.038 0.084 0.407c0.18 0.875 0.537 1.703 1.083 2.516 0.374 0.556 1.396 1.554 1.939 1.893l0.4 0.25 0.001 1.196c0 0.951-0.020 1.246-0.102 1.439-0.107 0.253-0.516 0.711-0.636 0.711-0.101 0-0.667-0.583-1.087-1.118-1.536-1.958-2.532-4.471-2.776-7.007-0.042-0.439-0.038-0.461 0.077-0.414 0.067 0.028 0.323 0.067 0.569 0.088zM10.422 14.664c-0.059 0.063-0.106 0.216-0.106 0.341 0 0.196 0.040 0.257 0.299 0.449 0.855 0.635 2.532 0.635 3.387 0 0.263-0.196 0.299-0.251 0.299-0.46 0-0.477-0.357-0.568-0.949-0.241-0.351 0.194-0.401 0.203-1.043 0.203s-0.692-0.010-1.043-0.203c-0.415-0.229-0.686-0.257-0.843-0.089zM6.82 24.197c0.906 1.746 2.712 2.976 4.757 3.241 1.417 0.184 3.027-0.209 4.24-1.034 0.23-0.156 0.438-0.284 0.463-0.283 0.045 0.001 0.478 0.718 0.514 0.852 0.028 0.102-0.774 0.604-1.477 0.926-3.493 1.597-7.726 0.14-9.494-3.267-0.147-0.283-0.18-0.399-0.121-0.419 0.045-0.015 0.27-0.097 0.5-0.182s0.425-0.156 0.433-0.158c0.008-0.002 0.092 0.143 0.185 0.324zM22.308 25.422c0.138 0.070 0.352 0.212 0.476 0.317l0.225 0.191-0.139 0.111c-0.077 0.061-0.402 0.331-0.723 0.6l-0.584 0.489v-2.005l0.247 0.085c0.136 0.047 0.36 0.142 0.498 0.211z"></path>
</symbol>
<symbol id="icon-clock" viewBox="0 0 32 32">
<path d="M14.839 0.022c-2.362 0.241-4.085 0.718-5.976 1.657-4.39 2.179-7.576 6.288-8.547 11.027-0.254 1.241-0.315 1.878-0.315 3.306 0 1.429 0.060 2.061 0.317 3.318 0.88 4.31 3.65 8.163 7.538 10.481 1.831 1.092 3.959 1.818 6.201 2.114 0.767 0.101 3.116 0.101 3.883 0 3.64-0.481 6.755-1.997 9.322-4.536 1.315-1.301 2.263-2.61 3.075-4.245 0.771-1.553 1.232-2.999 1.52-4.774 0.195-1.201 0.193-3.539-0.004-4.706-0.311-1.842-0.763-3.267-1.519-4.789-0.59-1.188-1.418-2.461-1.692-2.603-0.242-0.125-0.55-0.076-0.725 0.115-0.285 0.311-0.232 0.568 0.26 1.257 0.399 0.559 1.042 1.725 1.354 2.457 0.819 1.919 1.202 3.771 1.202 5.816 0 1.185-0.065 1.888-0.274 2.974-0.528 2.741-1.863 5.317-3.802 7.337-5.663 5.901-15.028 6.079-20.92 0.397-6.013-5.798-5.998-15.487 0.033-21.257 2.335-2.235 5.256-3.602 8.571-4.011 0.869-0.107 2.761-0.092 3.601 0.030 1.454 0.21 2.711 0.556 3.945 1.086 0.739 0.317 1.907 0.96 2.474 1.359 0.762 0.538 1.007 0.576 1.32 0.203 0.134-0.16 0.159-0.24 0.133-0.436-0.018-0.132-0.068-0.284-0.112-0.337-0.117-0.141-1.381-0.967-1.991-1.302-1.574-0.864-3.457-1.499-5.317-1.794-0.766-0.122-2.922-0.21-3.552-0.146zM14.651 2.933c-2.985 0.314-5.769 1.652-7.926 3.808-1.496 1.496-2.553 3.196-3.193 5.138-0.913 2.767-0.913 5.497 0 8.264 1.282 3.889 4.442 7.048 8.333 8.33 4.775 1.574 9.847 0.366 13.406-3.192 2.188-2.188 3.498-4.938 3.812-8.009 0.282-2.754-0.395-5.69-1.864-8.085-1.046-1.706-2.689-3.348-4.395-4.394-2.405-1.474-5.387-2.153-8.173-1.86zM17.858 4.275c2.484 0.396 4.736 1.549 6.533 3.345 1.807 1.807 2.935 4.015 3.358 6.575 0.149 0.9 0.149 2.731 0 3.631-0.422 2.56-1.55 4.768-3.358 6.575s-4.017 2.934-6.577 3.356c-0.9 0.148-2.732 0.148-3.632 0-2.561-0.422-4.77-1.55-6.577-3.356s-2.935-4.015-3.358-6.575c-0.149-0.9-0.149-2.731 0-3.631 0.422-2.56 1.55-4.768 3.358-6.575 2.017-2.017 4.642-3.232 7.485-3.465 0.574-0.047 2.148 0.021 2.768 0.12zM26.588 4.579c-0.543 0.301-0.316 1.165 0.306 1.165 0.206 0 0.444-0.143 0.537-0.322 0.145-0.281 0.111-0.483-0.124-0.717-0.232-0.232-0.457-0.271-0.72-0.125zM15.778 5.177c-0.297 0.122-0.375 0.299-0.397 0.912-0.016 0.445 0.003 0.633 0.081 0.799 0.19 0.401 0.655 0.481 0.969 0.166 0.189-0.189 0.193-0.204 0.193-0.811 0-0.689-0.067-0.904-0.322-1.036-0.191-0.099-0.335-0.107-0.523-0.030zM8.978 8.994c-0.197 0.197-0.24 0.465-0.114 0.713 0.038 0.075 1.239 1.309 2.669 2.742l2.6 2.606-0.108 0.431c-0.135 0.538-0.097 0.97 0.124 1.414 0.213 0.428 0.534 0.755 0.917 0.936l0.305 0.145v1.647c0 1.747 0.027 1.926 0.31 2.078 0.239 0.128 0.564 0.077 0.76-0.119l0.183-0.183v-3.423l0.305-0.145c0.812-0.385 1.269-1.34 1.076-2.249-0.154-0.727-0.814-1.408-1.521-1.572-0.408-0.094-0.56-0.090-1.037 0.030l-0.402 0.101-5.347-5.335h-0.268c-0.213 0-0.306 0.038-0.451 0.183zM16.369 15.311c0.235 0.126 0.442 0.454 0.442 0.7 0 0.087-0.051 0.254-0.114 0.372-0.126 0.235-0.454 0.442-0.7 0.442-0.387 0-0.814-0.427-0.814-0.814 0-0.087 0.051-0.254 0.114-0.372 0.126-0.235 0.454-0.442 0.7-0.442 0.087 0 0.255 0.051 0.372 0.114zM5.406 15.479c-0.343 0.187-0.384 0.692-0.079 0.978 0.139 0.13 0.23 0.151 0.742 0.17 0.446 0.016 0.635-0.003 0.801-0.081 0.401-0.19 0.481-0.654 0.167-0.968-0.19-0.19-0.2-0.193-0.83-0.19-0.428 0.002-0.691 0.032-0.801 0.091zM25.102 15.481c-0.381 0.194-0.45 0.657-0.144 0.963 0.189 0.189 0.203 0.193 0.817 0.193 0.71 0 0.933-0.078 1.054-0.369 0.1-0.242 0.037-0.517-0.162-0.704-0.141-0.132-0.225-0.151-0.764-0.166-0.456-0.013-0.654 0.007-0.801 0.082zM6.221 18.502c-0.181 0.162-0.21 0.227-0.204 0.458 0.016 0.628 0.839 0.846 1.123 0.298 0.215-0.415-0-0.849-0.45-0.91-0.223-0.030-0.285-0.009-0.468 0.154zM7.099 20.576c-0.302 0.301-0.259 0.51 0.266 1.3 0.902 1.359 2.524 2.771 4.024 3.503 0.752 0.367 1.051 0.357 1.256-0.039 0.229-0.442 0.055-0.708-0.714-1.094-1.359-0.682-2.694-1.837-3.509-3.035-0.525-0.772-0.576-0.819-0.886-0.819-0.199 0-0.296 0.041-0.438 0.183zM15.564 24.968c-0.189 0.189-0.193 0.203-0.193 0.817 0 0.71 0.078 0.933 0.369 1.053 0.242 0.1 0.517 0.037 0.704-0.162 0.131-0.139 0.151-0.23 0.17-0.742 0.016-0.446-0.003-0.635-0.081-0.8-0.19-0.401-0.655-0.481-0.969-0.166z"></path>
</symbol>
<symbol id="icon-appointment" viewBox="0 0 32 32">
<path d="M9.24 0.056c-0.508 0.155-0.942 0.539-1.18 1.047-0.125 0.265-0.164 0.467-0.19 0.985l-0.033 0.651h-1.48c-1.135 0-1.567 0.023-1.853 0.097-1.12 0.291-1.975 1.114-2.286 2.2-0.115 0.403-0.121 0.677-0.121 6.070v5.648l0.183 0.183c0.321 0.32 0.856 0.21 1.001-0.206 0.045-0.129 0.067-1.41 0.067-3.872v-3.679h11.332c8.223 0 11.369-0.019 11.468-0.070 0.471-0.241 0.471-0.87 0-1.111-0.099-0.051-3.246-0.070-11.468-0.070h-11.332v-1.186c0-1.034 0.016-1.229 0.126-1.521 0.17-0.455 0.494-0.814 0.924-1.025l0.358-0.176 3.098-0.039 0.001 0.395c0.003 0.888 0.264 1.513 0.788 1.883 0.392 0.277 0.612 0.346 1.12 0.351 0.537 0.005 0.965-0.173 1.338-0.557 0.36-0.371 0.508-0.809 0.508-1.503v-0.56h10.514l0.001 0.391c0.003 0.884 0.265 1.51 0.788 1.879 0.392 0.277 0.612 0.346 1.119 0.351 0.538 0.005 0.965-0.173 1.338-0.557 0.361-0.371 0.508-0.809 0.508-1.507v-0.564l1.737 0.019c1.622 0.018 1.756 0.028 2.028 0.154 0.372 0.172 0.779 0.579 0.951 0.95l0.134 0.291 0.016 12.224 0.016 12.224-0.141 0.28c-0.4 0.791-1.504 0.825-1.953 0.062-0.113-0.192-0.132-0.356-0.16-1.327l-0.031-1.108-0.347-0.346-3.707-0.018c-2.039-0.010-3.801-0.001-3.917 0.020-0.573 0.104-0.706 0.861-0.198 1.123 0.156 0.081 0.671 0.094 3.565 0.094h3.383l0.001 0.641c0.001 0.565 0.073 1.024 0.218 1.375 0.043 0.104-0.584 0.109-12.65 0.108-12.185-0.001-12.705-0.006-12.946-0.116-0.5-0.23-0.657-0.566-0.657-1.412v-0.596h14.204l0.204-0.182c0.172-0.153 0.202-0.222 0.197-0.444-0.005-0.195-0.050-0.305-0.173-0.428l-0.166-0.166-3.231-0.031c-2.884-0.028-3.219-0.041-3.117-0.125 0.255-0.209 0.876-1.059 1.074-1.469 0.421-0.873 0.49-1.203 0.486-2.313-0.003-0.916-0.017-1.043-0.172-1.5-0.692-2.054-2.458-3.432-4.581-3.573-2.721-0.181-5.142 1.876-5.402 4.589-0.138 1.437 0.296 2.792 1.245 3.889l0.428 0.494-0.935 0.020c-0.927 0.020-0.936 0.022-1.108 0.193l-0.173 0.173v1.171c0 0.956 0.020 1.228 0.11 1.483 0.151 0.429 0.517 0.893 0.925 1.171 0.668 0.455-0.453 0.424 14.955 0.424s14.287 0.032 14.955-0.424c0.388-0.265 0.763-0.726 0.925-1.14 0.104-0.265 0.111-1.010 0.127-12.567 0.011-8.469-0.004-12.385-0.050-12.606-0.18-0.871-0.847-1.757-1.613-2.143-0.69-0.348-0.933-0.381-2.774-0.381h-1.671l-0.021-0.703c-0.018-0.589-0.045-0.749-0.167-0.985-0.355-0.683-0.923-1.027-1.7-1.030-0.541-0.002-0.909 0.148-1.293 0.525-0.376 0.37-0.531 0.789-0.569 1.541l-0.033 0.651h-10.485l-0.021-0.703c-0.024-0.79-0.124-1.070-0.536-1.497-0.408-0.423-1.271-0.652-1.823-0.483zM10.002 1.308c0.349 0.178 0.353 0.201 0.354 2.004l0.001 1.668-0.162 0.192c-0.321 0.381-0.949 0.192-1.051-0.316-0.021-0.107-0.039-0.831-0.039-1.609 0-1.222 0.015-1.444 0.11-1.633 0.166-0.33 0.491-0.457 0.786-0.306zM24.271 1.308c0.349 0.178 0.353 0.201 0.354 2.004l0.001 1.668-0.162 0.192c-0.321 0.381-0.949 0.192-1.051-0.316-0.021-0.107-0.039-0.831-0.039-1.609 0-1.222 0.015-1.444 0.11-1.633 0.166-0.33 0.491-0.457 0.786-0.306zM28.6 7.987c-0.373 0.153-0.491 0.683-0.218 0.974 0.382 0.406 1.060 0.145 1.060-0.408 0-0.438-0.437-0.732-0.842-0.566zM7.678 12.59c-0.459 0.123-0.835 0.357-1.165 0.724-0.399 0.443-0.562 0.894-0.562 1.555 0 0.675 0.165 1.12 0.587 1.581 0.922 1.008 2.446 1.042 3.412 0.076 1.297-1.296 0.698-3.478-1.081-3.941-0.433-0.113-0.757-0.111-1.192 0.006zM13.596 12.556c-2.187 0.551-2.474 3.496-0.435 4.457 0.372 0.175 0.48 0.197 0.951 0.194 0.397-0.003 0.624-0.040 0.894-0.145 0.506-0.198 1.038-0.703 1.271-1.207 0.16-0.346 0.182-0.463 0.182-0.987s-0.022-0.641-0.182-0.987c-0.236-0.51-0.768-1.013-1.271-1.201-0.412-0.154-1.064-0.211-1.411-0.124zM19.401 12.577c-0.811 0.211-1.459 0.82-1.694 1.595-0.184 0.605-0.083 1.414 0.241 1.925 0.823 1.301 2.611 1.513 3.688 0.438 1.156-1.155 0.812-3.109-0.67-3.8-0.456-0.213-1.101-0.277-1.565-0.157zM25.201 12.59c-0.459 0.123-0.835 0.357-1.165 0.724-0.399 0.443-0.562 0.894-0.562 1.555 0 0.675 0.165 1.12 0.587 1.581 0.922 1.008 2.445 1.042 3.412 0.076 1.297-1.296 0.698-3.478-1.081-3.941-0.433-0.113-0.757-0.111-1.192 0.006zM8.777 13.875c0.551 0.266 0.78 0.917 0.516 1.462-0.278 0.574-0.947 0.806-1.502 0.52-0.824-0.424-0.825-1.558-0.002-1.974 0.349-0.176 0.636-0.178 0.988-0.008zM14.589 13.862c0.142 0.064 0.339 0.223 0.438 0.353 0.157 0.206 0.181 0.29 0.181 0.653s-0.023 0.447-0.181 0.653c-0.336 0.44-0.9 0.582-1.384 0.348-0.83-0.401-0.833-1.591-0.005-2 0.316-0.156 0.616-0.158 0.951-0.007zM20.351 13.809c0.417 0.157 0.723 0.605 0.723 1.059 0 0.351-0.122 0.605-0.413 0.86-0.394 0.345-0.963 0.346-1.381 0.002-0.551-0.454-0.556-1.279-0.011-1.714 0.336-0.268 0.724-0.342 1.082-0.207zM26.3 13.875c0.551 0.266 0.78 0.917 0.516 1.462-0.278 0.574-0.947 0.806-1.502 0.52-0.824-0.424-0.825-1.558-0.002-1.974 0.349-0.176 0.636-0.178 0.988-0.008zM13.596 19.059c-2.187 0.551-2.474 3.496-0.435 4.457 0.372 0.175 0.48 0.197 0.951 0.194 0.397-0.003 0.624-0.040 0.894-0.145 0.506-0.198 1.038-0.704 1.271-1.207 0.16-0.346 0.182-0.463 0.182-0.987s-0.022-0.641-0.182-0.987c-0.236-0.51-0.768-1.013-1.271-1.201-0.412-0.154-1.064-0.211-1.411-0.124zM19.401 19.079c-0.811 0.211-1.459 0.82-1.694 1.595-0.184 0.605-0.083 1.414 0.241 1.925 0.823 1.301 2.611 1.514 3.688 0.438 1.156-1.155 0.812-3.109-0.67-3.8-0.456-0.213-1.101-0.277-1.565-0.157zM25.201 19.092c-0.459 0.123-0.835 0.357-1.165 0.724-0.399 0.443-0.562 0.894-0.562 1.555 0 0.675 0.165 1.12 0.587 1.581 0.922 1.008 2.445 1.042 3.412 0.076 1.297-1.296 0.698-3.478-1.081-3.941-0.433-0.113-0.757-0.111-1.192 0.006zM6.446 19.714c1.393 0.292 2.574 1.43 2.937 2.827 0.127 0.488 0.127 1.422 0 1.91-0.614 2.366-3.268 3.595-5.44 2.518-1.358-0.673-2.168-1.97-2.168-3.473 0-2.469 2.249-4.29 4.671-3.782zM14.589 20.365c0.142 0.064 0.339 0.223 0.438 0.353 0.157 0.206 0.181 0.29 0.181 0.653s-0.023 0.447-0.181 0.653c-0.336 0.44-0.9 0.582-1.384 0.348-0.83-0.401-0.833-1.591-0.005-2 0.316-0.156 0.616-0.159 0.951-0.007zM20.351 20.312c0.417 0.157 0.723 0.605 0.723 1.059 0 0.35-0.122 0.604-0.413 0.86-0.394 0.345-0.963 0.346-1.381 0.002-0.551-0.454-0.556-1.279-0.011-1.714 0.336-0.268 0.724-0.342 1.082-0.207zM26.3 20.378c0.551 0.266 0.78 0.917 0.516 1.462-0.278 0.574-0.947 0.806-1.502 0.52-0.824-0.424-0.825-1.558-0.002-1.974 0.349-0.176 0.636-0.178 0.988-0.008zM6.046 22.898l-1.102 1.089-0.416-0.395c-0.455-0.432-0.694-0.529-0.974-0.397-0.228 0.108-0.413 0.482-0.354 0.716 0.049 0.197 1.147 1.361 1.413 1.498 0.093 0.048 0.261 0.087 0.372 0.087 0.181 0 0.354-0.15 1.599-1.389 1.081-1.076 1.404-1.434 1.433-1.588 0.070-0.374-0.223-0.709-0.624-0.711-0.232-0.001-0.296 0.050-1.346 1.088zM17.992 27.441c-0.58 0.232-0.466 1.078 0.157 1.161 0.437 0.058 0.763-0.333 0.645-0.775-0.085-0.32-0.485-0.512-0.802-0.386z"></path>
</symbol>
<symbol id="icon-certificate" viewBox="0 0 32 32">
<path d="M2.006 2.961c-0.986 0.251-1.748 1.007-1.952 1.936-0.047 0.216-0.063 3.159-0.051 9.771l0.017 9.462 0.147 0.346c0.28 0.657 0.895 1.219 1.616 1.476l0.363 0.13 16.542 0.032v1.324c0 0.728 0.017 1.368 0.039 1.42 0.048 0.119 0.345 0.269 0.532 0.269 0.096 0 0.434-0.277 1.085-0.887 0.52-0.488 0.971-0.887 1.003-0.887s0.483 0.399 1.003 0.887c1.052 0.987 1.139 1.029 1.473 0.714l0.183-0.173v-2.664l2.924-0.018c2.833-0.017 2.935-0.022 3.287-0.148 0.721-0.258 1.336-0.82 1.616-1.476l0.147-0.346 0.017-9.462c0.012-6.612-0.004-9.555-0.051-9.771-0.152-0.692-0.724-1.419-1.36-1.725-0.66-0.318 0.127-0.302-14.614-0.298-11.545 0.003-13.687 0.017-13.965 0.087zM29.814 3.967c0.381 0.107 0.768 0.413 0.966 0.761l0.136 0.241 0.016 9.4c0.018 10.419 0.046 9.705-0.392 10.188-0.118 0.131-0.35 0.301-0.514 0.378l-0.299 0.14-5.723 0.036v-2.338l0.526-0.507 0.945 0.887c0.52 0.488 0.999 0.89 1.066 0.894 0.266 0.015 0.377-0.020 0.511-0.161l0.141-0.148v-3.509c0-3.37 0.005-3.519 0.124-3.767 0.068-0.142 0.124-0.329 0.125-0.417 0.002-0.181 0.202-0.343 0.424-0.343 0.217 0 0.596-0.203 0.812-0.435 0.276-0.298 0.352-0.568 0.303-1.079l-0.042-0.433 0.248-0.148c0.527-0.315 0.786-0.869 0.643-1.379-0.043-0.155-0.148-0.375-0.232-0.491s-0.153-0.24-0.153-0.277 0.091-0.206 0.203-0.376c0.173-0.263 0.203-0.363 0.2-0.669-0.004-0.472-0.184-0.798-0.593-1.077l-0.31-0.211 0.036-0.482c0.032-0.429 0.020-0.512-0.11-0.748-0.186-0.338-0.594-0.632-0.948-0.683-0.377-0.054-0.423-0.092-0.487-0.418-0.072-0.367-0.3-0.69-0.63-0.896-0.239-0.149-0.312-0.163-0.851-0.163h-0.589l-0.183-0.25c-0.197-0.269-0.582-0.511-0.916-0.577-0.272-0.054-0.765 0.062-1.020 0.241-0.259 0.181-0.388 0.18-0.642-0.003-0.609-0.439-1.478-0.272-1.937 0.374l-0.18 0.254-0.464-0.041c-0.926-0.082-1.41 0.286-1.615 1.229-0.025 0.115-0.084 0.172-0.206 0.198-0.513 0.109-0.638 0.159-0.873 0.35-0.363 0.294-0.484 0.622-0.434 1.177l0.039 0.435-0.322 0.229c-0.583 0.415-0.757 1.001-0.466 1.569 0.089 0.174 0.198 0.363 0.242 0.42 0.066 0.086 0.061 0.132-0.029 0.266-0.242 0.363-0.358 0.648-0.359 0.888-0.002 0.455 0.264 0.871 0.735 1.146l0.204 0.12-0.041 0.458c-0.026 0.296-0.014 0.534 0.034 0.671 0.105 0.301 0.525 0.678 0.84 0.756 0.551 0.135 0.569 0.144 0.624 0.323 0.030 0.097 0.108 0.31 0.174 0.474 0.113 0.284 0.118 0.492 0.103 4.465l-0.016 4.167h-16.386l-0.299-0.14c-0.164-0.077-0.396-0.247-0.514-0.378-0.438-0.484-0.41 0.231-0.392-10.188l0.016-9.4 0.135-0.237c0.2-0.349 0.533-0.622 0.908-0.745 0.319-0.104 0.899-0.109 13.846-0.111 12.052-0.002 13.549 0.008 13.841 0.090zM22.15 6.075c0.246 0.15 0.397 0.195 0.706 0.214 0.359 0.022 0.428 0.005 0.802-0.193 0.334-0.177 0.432-0.205 0.535-0.152 0.069 0.035 0.126 0.090 0.126 0.122s0.115 0.176 0.255 0.32c0.355 0.365 0.724 0.462 1.357 0.359 0.316-0.051 0.451 0.025 0.453 0.256 0.002 0.18 0.207 0.634 0.362 0.798 0.14 0.149 0.69 0.391 0.891 0.391 0.272 0.001 0.312 0.095 0.27 0.62-0.034 0.413-0.021 0.511 0.091 0.719 0.128 0.237 0.521 0.613 0.641 0.613 0.034 0 0.093 0.066 0.132 0.147 0.060 0.125 0.047 0.18-0.092 0.37-0.218 0.3-0.294 0.508-0.294 0.803 0.001 0.246 0.236 0.817 0.368 0.894 0.15 0.087 0.056 0.263-0.259 0.483-0.198 0.139-0.386 0.336-0.474 0.496-0.129 0.235-0.142 0.323-0.113 0.749 0.038 0.556 0.034 0.562-0.454 0.67-0.55 0.122-0.956 0.534-1.045 1.059-0.023 0.134-0.073 0.263-0.111 0.287s-0.325 0.043-0.637 0.043c-0.512 0-0.592 0.015-0.824 0.161-0.141 0.088-0.345 0.281-0.452 0.429-0.225 0.309-0.355 0.334-0.647 0.126-0.461-0.329-1.072-0.342-1.555-0.033-0.149 0.095-0.316 0.174-0.371 0.174s-0.21-0.137-0.344-0.305c-0.35-0.44-0.614-0.552-1.3-0.552-0.621 0-0.603 0.012-0.734-0.473-0.118-0.436-0.541-0.82-1.017-0.921-0.196-0.042-0.376-0.104-0.401-0.139s-0.044-0.305-0.044-0.6c0-0.483-0.017-0.56-0.169-0.778-0.093-0.133-0.29-0.318-0.437-0.412s-0.277-0.213-0.288-0.265 0.066-0.222 0.171-0.378c0.332-0.495 0.331-0.99-0.004-1.467-0.218-0.312-0.201-0.466 0.065-0.597 0.245-0.12 0.541-0.455 0.632-0.716 0.050-0.144 0.063-0.365 0.037-0.633-0.046-0.464 0.006-0.575 0.27-0.575 0.092 0 0.317-0.070 0.5-0.157 0.382-0.18 0.658-0.532 0.727-0.927 0.064-0.367 0.123-0.41 0.494-0.36 0.662 0.090 1.052-0.030 1.401-0.431 0.322-0.369 0.384-0.432 0.427-0.432 0.023 0 0.182 0.085 0.355 0.19zM5.449 6.95c-1.050 0.147-1.972 0.985-2.199 1.999-0.049 0.219-0.070 1.898-0.070 5.561 0 5.686-0.007 5.565 0.342 6.215 0.216 0.402 0.727 0.858 1.216 1.084l0.412 0.191 11.059 0.032 0.146-0.13c0.234-0.208 0.184-0.672-0.087-0.797-0.061-0.028-2.546-0.065-5.521-0.081l-5.41-0.030-0.226-0.133c-0.31-0.182-0.544-0.413-0.703-0.694l-0.134-0.237v-10.881l0.186-0.318c0.199-0.34 0.424-0.532 0.818-0.701 0.228-0.097 0.631-0.108 5.365-0.135l5.118-0.030 0.12-0.14c0.162-0.19 0.15-0.441-0.031-0.641l-0.151-0.166-4.962-0.008c-2.729-0.004-5.108 0.012-5.288 0.038zM22.004 7.515c-0.575 0.116-1.458 0.55-1.919 0.942-0.491 0.417-0.912 1.015-1.156 1.641-0.16 0.408-0.196 0.602-0.222 1.169-0.037 0.833 0.062 1.293 0.435 2.011 0.208 0.401 0.369 0.605 0.795 1.007 0.872 0.823 1.785 1.182 2.999 1.18 0.751-0.001 1.271-0.114 1.925-0.419 2.022-0.944 2.909-3.364 1.936-5.284-0.456-0.9-1.081-1.498-2.011-1.922-0.875-0.399-1.853-0.513-2.783-0.325zM23.58 8.493c0.56 0.11 1.19 0.432 1.596 0.815 1.272 1.203 1.269 3.115-0.008 4.295-0.646 0.597-1.323 0.858-2.225 0.858-0.919 0-1.584-0.262-2.256-0.887-0.623-0.58-0.932-1.276-0.933-2.102-0.003-1.911 1.862-3.363 3.827-2.978zM6.022 10.111c-0.199 0.188-0.2 0.448-0.003 0.665l0.151 0.166h7.881l0.161-0.143c0.214-0.19 0.222-0.521 0.017-0.704l-0.145-0.129h-7.909l-0.153 0.145zM6.022 12.122c-0.215 0.203-0.204 0.467 0.029 0.687l0.183 0.173h3.854c4.075 0 4.14-0.004 4.247-0.269 0.084-0.206 0.036-0.449-0.115-0.591l-0.153-0.145h-7.892l-0.153 0.145zM6.022 14.133c-0.282 0.267-0.145 0.743 0.239 0.832 0.076 0.018 1.879 0.025 4.007 0.015l3.867-0.017 0.12-0.14c0.17-0.199 0.155-0.512-0.034-0.691l-0.153-0.145h-7.892l-0.153 0.145zM7.855 17.096c-0.173 0.089-0.198 0.146-0.264 0.608-0.079 0.55-0.385 0.884-1.139 1.242-0.429 0.204-0.583 0.367-0.583 0.616 0 0.231 0.252 0.457 0.508 0.457 0.353 0 1.107-0.402 1.566-0.835l0.418-0.394 0.142 0.143c0.569 0.572 1.472 0.758 2.011 0.412 0.208-0.133 0.217-0.134 0.427-0.032 0.518 0.251 2.333 0.588 3.173 0.588 0.423 0 0.472-0.013 0.641-0.173 0.233-0.221 0.237-0.436 0.010-0.65-0.162-0.153-0.215-0.165-0.891-0.201-0.468-0.025-0.992-0.101-1.501-0.218-0.972-0.224-1.11-0.276-1.236-0.468-0.213-0.325-0.343-0.42-0.578-0.42-0.284 0-0.49 0.189-0.543 0.499-0.021 0.121-0.074 0.234-0.118 0.25-0.261 0.095-0.938-0.484-1.186-1.014-0.223-0.477-0.485-0.602-0.857-0.412zM20.651 17.343c0.272 0.403 0.693 0.665 1.069 0.665h0.158v5.73l0.141 0.155c0.181 0.199 0.484 0.214 0.738 0.037l0.185-0.129v3.575l-0.679-0.632c-0.623-0.58-0.698-0.632-0.916-0.632s-0.294 0.052-0.916 0.632l-0.679 0.632v-10.187l0.235-0.023c0.511-0.051 0.509-0.051 0.664 0.179zM25.991 17.18l0.141 0.001v5.172l-0.686-0.647c-0.616-0.581-0.709-0.647-0.909-0.647s-0.293 0.066-0.909 0.647l-0.686 0.647v-2.379c0-1.309 0.013-2.379 0.029-2.379s0.156 0.084 0.31 0.187c0.651 0.434 1.498 0.243 1.954-0.44 0.146-0.219 0.17-0.231 0.385-0.198 0.126 0.020 0.292 0.036 0.37 0.037z"></path>
</symbol>
<symbol id="icon-youtube" viewBox="0 0 32 32">
<path d="M12.636 5.985c-5.4 0.095-8.571 0.333-9.563 0.717-0.899 0.348-1.659 1.002-2.106 1.812-0.58 1.051-0.885 3.351-0.957 7.197-0.057 3.072 0.12 5.866 0.484 7.631 0.397 1.926 1.483 3.025 3.362 3.402 1.707 0.342 6.238 0.544 12.184 0.544 6.070-0 10.401-0.194 12.213-0.546 0.592-0.115 1.435-0.511 1.877-0.882 0.46-0.386 0.928-1.056 1.123-1.604 0.532-1.498 0.859-5.865 0.711-9.492-0.2-4.919-0.621-6.465-2.041-7.489-0.657-0.474-1.109-0.647-2.122-0.813-1.254-0.205-4.276-0.387-7.457-0.447-3.727-0.071-5.059-0.076-7.708-0.029zM16.942 14.33c2.248 1.234 4.084 2.271 4.081 2.305-0.004 0.049-8.114 4.545-8.198 4.545-0.012 0-0.022-2.046-0.022-4.547s0.012-4.547 0.026-4.547c0.014 0 1.865 1.010 4.113 2.244z"></path>
</symbol>
<symbol id="icon-instagram" viewBox="0 0 32 32">
<path d="M7.447 1.668c-1.68 0.25-3.008 0.923-4.221 2.136-1.248 1.248-1.932 2.641-2.159 4.392-0.089 0.685-0.089 16.082 0 16.767 0.227 1.752 0.911 3.145 2.159 4.392s2.64 1.933 4.392 2.159c0.685 0.089 16.080 0.089 16.765 0 1.751-0.227 3.144-0.912 4.392-2.159s1.932-2.641 2.159-4.392c0.089-0.686 0.089-16.082 0-16.767-0.227-1.752-0.911-3.145-2.159-4.392s-2.641-1.933-4.392-2.159c-0.751-0.097-16.271-0.076-16.936 0.023zM25.006 4.318c0.659 0.23 0.807 0.304 1.349 0.677 0.87 0.599 1.554 1.529 1.899 2.582l0.195 0.596v8.408c0 8.047-0.005 8.423-0.109 8.759-0.397 1.274-1.071 2.214-2.077 2.894-0.429 0.291-0.807 0.466-1.419 0.659l-0.437 0.138h-16.813l-0.596-0.195c-1.642-0.538-2.79-1.74-3.337-3.496-0.105-0.336-0.109-0.712-0.109-8.759s0.005-8.423 0.109-8.759c0.417-1.338 1.142-2.309 2.23-2.988 0.457-0.285 1.24-0.591 1.727-0.674 0.148-0.025 3.999-0.042 8.558-0.038l8.289 0.008 0.541 0.188zM23.733 6.644c-0.418 0.090-0.656 0.22-0.937 0.509-0.383 0.394-0.499 0.7-0.497 1.312 0.001 0.456 0.022 0.567 0.156 0.82 0.323 0.611 0.869 0.968 1.548 1.012 0.495 0.032 0.759-0.040 1.178-0.321 1.166-0.783 1.032-2.571-0.238-3.175-0.434-0.207-0.778-0.251-1.21-0.158zM15.041 9.143c-2.831 0.392-5.243 2.366-6.124 5.010-0.301 0.903-0.384 1.426-0.384 2.427s0.082 1.522 0.385 2.431c0.705 2.121 2.534 3.945 4.666 4.656 0.892 0.297 1.418 0.38 2.415 0.38s1.523-0.083 2.415-0.38c2.132-0.711 3.961-2.535 4.666-4.656 0.303-0.91 0.385-1.43 0.385-2.431 0-1.313-0.255-2.385-0.823-3.454-1.081-2.035-2.948-3.433-5.208-3.899-0.564-0.116-1.838-0.161-2.394-0.084zM17.507 11.826c0.625 0.208 0.794 0.289 1.275 0.614 0.983 0.663 1.649 1.58 2.028 2.795 0.118 0.379 0.137 0.558 0.137 1.345 0 0.967-0.070 1.322-0.411 2.093-0.435 0.983-1.464 2.011-2.449 2.447-0.766 0.339-1.122 0.408-2.087 0.408s-1.322-0.070-2.087-0.408c-0.986-0.436-2.015-1.464-2.449-2.447-0.341-0.772-0.411-1.126-0.411-2.093 0-0.787 0.018-0.966 0.136-1.345 0.199-0.638 0.375-1.006 0.711-1.492 0.662-0.958 1.59-1.624 2.726-1.958 0.575-0.169 0.664-0.178 1.55-0.157 0.697 0.016 0.855 0.040 1.332 0.198z"></path>
</symbol>
<symbol id="icon-vk" viewBox="0 0 32 32">
<path d="M13.409 7.147c-0.609 0.046-1.38 0.168-1.689 0.267-0.53 0.17-1.191 0.777-1.069 0.981 0.022 0.038 0.145 0.088 0.273 0.113 0.574 0.11 1.058 0.447 1.275 0.887 0.371 0.752 0.538 3.103 0.338 4.768-0.132 1.1-0.188 1.355-0.383 1.754-0.524 1.070-1.729 0.204-3.056-2.198-0.472-0.855-1.801-3.598-2.098-4.33-0.358-0.885-0.472-1.048-0.879-1.262l-0.344-0.181-2.596 0.019c-2.344 0.017-2.616 0.030-2.799 0.134-0.29 0.164-0.414 0.388-0.376 0.679 0.041 0.312 1.026 2.576 1.751 4.026 1.413 2.824 2.609 4.875 3.888 6.664 1.881 2.632 2.713 3.486 4.635 4.756 0.897 0.593 1.545 0.925 2.346 1.202 1.1 0.38 1.579 0.453 3.221 0.492 1.635 0.039 2.104-0.010 2.451-0.255 0.285-0.201 0.373-0.479 0.427-1.342 0.053-0.852 0.213-1.583 0.435-1.973 0.195-0.344 0.619-0.742 0.801-0.751 0.635-0.032 0.99 0.241 2.317 1.778 1.244 1.442 1.703 1.866 2.39 2.206 0.31 0.153 0.69 0.309 0.845 0.346 0.375 0.089 5.442-0.011 5.769-0.114 0.324-0.102 0.673-0.456 0.681-0.691 0.022-0.642-0.069-0.932-0.503-1.61-0.571-0.892-1.061-1.461-2.731-3.171-1.773-1.816-1.897-1.985-1.9-2.592-0.002-0.51 0.228-0.902 1.785-3.035 2.196-3.009 3.076-4.463 3.32-5.488 0.143-0.601 0.062-0.891-0.308-1.096l-0.263-0.146-3.159 0.022c-2.233 0.015-3.204 0.044-3.313 0.097-0.212 0.104-0.437 0.481-0.718 1.208-0.75 1.934-2.295 4.721-3.313 5.977-0.405 0.5-1.035 1.011-1.245 1.011-0.293 0-0.535-0.196-0.718-0.582l-0.169-0.356 0.017-3.359c0.018-3.612 0.011-3.719-0.313-4.196-0.318-0.47-1.095-0.631-3.176-0.659-0.843-0.012-1.673-0.010-1.845 0.003z"></path>
</symbol>
<symbol id="icon-facebook" viewBox="0 0 32 32">
<path d="M18.111 1.479c-2.746 0.472-4.467 2.347-4.981 5.428-0.070 0.417-0.095 1.11-0.115 3.177l-0.026 2.643h-4.1v5.375h4.111v13.526h5.111v-13.526h1.972c1.085 0 1.972-0.015 1.972-0.034s0.137-1.2 0.306-2.624c0.168-1.424 0.306-2.619 0.306-2.653 0-0.044-0.689-0.064-2.281-0.064h-2.281l0.018-2.377c0.016-2.105 0.029-2.408 0.116-2.643 0.217-0.588 0.546-0.918 1.135-1.141 0.289-0.109 0.483-0.123 2.028-0.145l1.708-0.024v-2.389c0-1.858-0.015-2.395-0.069-2.414-0.184-0.066-1.661-0.156-2.958-0.179-1.127-0.020-1.561-0.006-1.972 0.065z"></path>
</symbol>
<symbol id="icon-circle-arrow" viewBox="0 0 32 32">
<path fill="none" stroke="#fff" style="stroke: var(--color1, #fff)" stroke-linejoin="miter" stroke-linecap="butt" stroke-miterlimit="4" stroke-width="1.0323" d="M16 0.516c8.552 0 15.484 6.932 15.484 15.484s-6.932 15.484-15.484 15.484c-8.552 0-15.484-6.932-15.484-15.484s6.932-15.484 15.484-15.484z"></path>
<path fill="#fff" style="fill: var(--color1, #fff)" d="M20.9 13.7l-0.894-0.894c-0.059-0.059-0.059-0.154 0-0.212s0.154-0.059 0.212 0l3.3 3.3c0.059 0.059 0.059 0.154 0 0.212l-3.3 3.3c-0.002 0.002-0.004 0.004-0.006 0.005-0.060 0.056-0.154 0.054-0.21-0.005s-0.056-0.152 0.001-0.21c0.001-0.001 0.002-0.002 0.003-0.003l3.194-3.194-2.299-2.3z"></path>
<path fill="#fff" style="fill: var(--color1, #fff)" d="M20.9 13.7v0zM20.005 12.805v0zM20.005 12.593v0zM20.218 12.593v0zM23.518 15.893v0zM23.518 16.105v0zM20.218 19.405l-0.219-0.219-0 0 0.219 0.219zM20.212 19.411l-0.207-0.23-0.004 0.004 0.212 0.226zM20.002 19.406v0zM20.003 19.196l0.221 0.218 0.004-0.004-0.224-0.213zM20.005 19.193l0.219 0.219 0-0-0.219-0.219zM23.199 15.999l0.219 0.219 0.219-0.219-0.219-0.219-0.219 0.219zM21.119 13.481l-0.894-0.894-0.438 0.438 0.894 0.894 0.438-0.438zM20.224 12.586c0.062 0.062 0.062 0.163 0 0.226l-0.438-0.438c-0.18 0.18-0.18 0.471 0 0.65l0.438-0.438zM20.224 12.812c-0.062 0.062-0.163 0.062-0.226 0l0.438-0.438c-0.18-0.18-0.471-0.18-0.65 0l0.438 0.438zM19.999 12.812l3.3 3.3 0.438-0.438-3.3-3.3-0.438 0.438zM23.299 16.112c-0.062-0.062-0.062-0.163-0-0.226l0.438 0.438c0.179-0.18 0.179-0.47 0-0.65l-0.438 0.438zM23.299 15.886l-3.3 3.3 0.438 0.438 3.3-3.3-0.438-0.438zM19.998 19.187c0.002-0.002 0.004-0.004 0.006-0.006l0.415 0.46c0.006-0.005 0.012-0.011 0.018-0.017l-0.439-0.437zM19.779 19.621c0.175 0.181 0.462 0.188 0.645 0.016l-0.424-0.452c0.064-0.060 0.163-0.057 0.224 0.005l-0.445 0.43zM19.782 18.978c-0.175 0.177-0.177 0.462-0.003 0.642l0.446-0.43c0.060 0.063 0.059 0.161-0.001 0.223l-0.441-0.435zM20.227 19.409c-0.001 0.001-0.002 0.002-0.003 0.003l-0.437-0.439c-0.003 0.003-0.006 0.006-0.008 0.009l0.449 0.427zM20.224 19.412l3.194-3.194-0.438-0.438-3.194 3.194 0.438 0.438zM20.681 13.919l2.299 2.3 0.438-0.438-2.299-2.3-0.438 0.438z"></path>
<path fill="#fff" style="fill: var(--color1, #fff)" d="M9.29 16v0c0-0.285 0.231-0.516 0.516-0.516h13.419c0.285 0 0.516 0.231 0.516 0.516v0c0 0.285-0.231 0.516-0.516 0.516h-13.419c-0.285 0-0.516-0.231-0.516-0.516z"></path>
</symbol>
</defs>
</svg>
