<svg aria-hidden="true" style="position: absolute; width: 0; height: 0; overflow: hidden;" version="1.1" xmlns="http://www.w3.org/2000/svg" xmlns:xlink="http://www.w3.org/1999/xlink">
<defs>
<symbol id="icon-circle-arrow" viewBox="0 0 32 32">
<path fill="none" stroke="#fff" style="stroke: var(--color1, #fff)" stroke-linejoin="miter" stroke-linecap="butt" stroke-miterlimit="4" stroke-width="1.0323" d="M16 0.516c8.552 0 15.484 6.932 15.484 15.484s-6.932 15.484-15.484 15.484c-8.552 0-15.484-6.932-15.484-15.484s6.932-15.484 15.484-15.484z"></path>
<path fill="#fff" style="fill: var(--color1, #fff)" d="M20.9 13.7l-0.894-0.894c-0.059-0.059-0.059-0.154 0-0.212s0.154-0.059 0.212 0l3.3 3.3c0.059 0.059 0.059 0.154 0 0.212l-3.3 3.3c-0.002 0.002-0.004 0.004-0.006 0.005-0.060 0.056-0.154 0.054-0.21-0.005s-0.056-0.152 0.001-0.21c0.001-0.001 0.002-0.002 0.003-0.003l3.194-3.194-2.299-2.3z"></path>
<path fill="#fff" style="fill: var(--color1, #fff)" d="M20.9 13.7v0zM20.005 12.805v0zM20.005 12.593v0zM20.218 12.593v0zM23.518 15.893v0zM23.518 16.105v0zM20.218 19.405l-0.219-0.219-0 0 0.219 0.219zM20.212 19.411l-0.207-0.23-0.004 0.004 0.212 0.226zM20.002 19.406v0zM20.003 19.196l0.221 0.218 0.004-0.004-0.224-0.213zM20.005 19.193l0.219 0.219 0-0-0.219-0.219zM23.199 15.999l0.219 0.219 0.219-0.219-0.219-0.219-0.219 0.219zM21.119 13.481l-0.894-0.894-0.438 0.438 0.894 0.894 0.438-0.438zM20.224 12.586c0.062 0.062 0.062 0.163 0 0.226l-0.438-0.438c-0.18 0.18-0.18 0.471 0 0.65l0.438-0.438zM20.224 12.812c-0.062 0.062-0.163 0.062-0.226 0l0.438-0.438c-0.18-0.18-0.471-0.18-0.65 0l0.438 0.438zM19.999 12.812l3.3 3.3 0.438-0.438-3.3-3.3-0.438 0.438zM23.299 16.112c-0.062-0.062-0.062-0.163-0-0.226l0.438 0.438c0.179-0.18 0.179-0.47 0-0.65l-0.438 0.438zM23.299 15.886l-3.3 3.3 0.438 0.438 3.3-3.3-0.438-0.438zM19.998 19.187c0.002-0.002 0.004-0.004 0.006-0.006l0.415 0.46c0.006-0.005 0.012-0.011 0.018-0.017l-0.439-0.437zM19.779 19.621c0.175 0.181 0.462 0.188 0.645 0.016l-0.424-0.452c0.064-0.060 0.163-0.057 0.224 0.005l-0.445 0.43zM19.782 18.978c-0.175 0.177-0.177 0.462-0.003 0.642l0.446-0.43c0.060 0.063 0.059 0.161-0.001 0.223l-0.441-0.435zM20.227 19.409c-0.001 0.001-0.002 0.002-0.003 0.003l-0.437-0.439c-0.003 0.003-0.006 0.006-0.008 0.009l0.449 0.427zM20.224 19.412l3.194-3.194-0.438-0.438-3.194 3.194 0.438 0.438zM20.681 13.919l2.299 2.3 0.438-0.438-2.299-2.3-0.438 0.438z"></path>
<path fill="#fff" style="fill: var(--color1, #fff)" d="M9.29 16v0c0-0.285 0.231-0.516 0.516-0.516h13.419c0.285 0 0.516 0.231 0.516 0.516v0c0 0.285-0.231 0.516-0.516 0.516h-13.419c-0.285 0-0.516-0.231-0.516-0.516z"></path>
</symbol>
</defs>
</svg>
