<svg width="17" height="11" viewBox="0 0 17 11" fill="none" xmlns="http://www.w3.org/2000/svg">
<path fill-rule="evenodd" clip-rule="evenodd" d="M7.12346 0.796623C6.80011 0.820924 6.39023 0.885613 6.2262 0.938237C5.94457 1.0286 5.59361 1.35088 5.65851 1.45953C5.67044 1.4795 5.73577 1.50651 5.80366 1.51954C6.10846 1.57808 6.36554 1.75692 6.48079 1.99054C6.67775 2.38992 6.76635 3.639 6.66037 4.52327C6.59036 5.10777 6.56075 5.24326 6.45693 5.4552C6.17838 6.02372 5.53867 5.56347 4.83367 4.2874C4.58277 3.83331 3.87669 2.37586 3.71914 1.98694C3.52873 1.51689 3.46844 1.43034 3.25194 1.3164L3.0692 1.22023L1.69009 1.23047C0.444699 1.23972 0.300541 1.24663 0.203272 1.30159C0.0490769 1.38875 -0.0167881 1.50775 0.00361607 1.6625C0.0254492 1.82827 0.548515 3.03082 0.933968 3.80145C1.6844 5.30176 2.31999 6.39123 2.99945 7.34179C3.99875 8.73988 4.4409 9.1935 5.46188 9.86822C5.93862 10.1833 6.2827 10.3595 6.70806 10.5066C7.29251 10.7086 7.54693 10.7474 8.41949 10.7681C9.28786 10.7886 9.53737 10.7627 9.72137 10.6329C9.87291 10.526 9.9198 10.3784 9.94808 9.91971C9.97599 9.467 10.0615 9.0788 10.179 8.87146C10.2826 8.6885 10.5079 8.47721 10.6046 8.47226C10.9419 8.45508 11.1307 8.60002 11.8353 9.41698C12.496 10.1829 12.7402 10.4083 13.1051 10.5891C13.2696 10.6706 13.4715 10.7532 13.5538 10.7727C13.7531 10.82 16.4446 10.7669 16.6184 10.7122C16.7904 10.658 16.9758 10.47 16.98 10.3453C16.9916 10.0041 16.9435 9.85028 16.7127 9.48982C16.4094 9.01603 16.1488 8.71345 15.2616 7.80503C14.3195 6.84033 14.2537 6.75056 14.2524 6.42783C14.2512 6.15691 14.3737 5.94875 15.2008 4.81543C16.3675 3.21671 16.8347 2.4445 16.9646 1.90008C17.0408 1.58079 16.9974 1.42674 16.8008 1.31805L16.6609 1.24071L14.9827 1.25226C13.7964 1.26041 13.2805 1.27553 13.2227 1.30382C13.1101 1.35885 12.9907 1.55952 12.841 1.94534C12.4424 2.97297 11.6217 4.45342 11.0809 5.12042C10.8657 5.38587 10.5312 5.65755 10.4196 5.65755C10.2638 5.65755 10.1354 5.55351 10.038 5.34847L9.94814 5.15915L9.95725 3.37458C9.96705 1.45547 9.96283 1.39879 9.79112 1.1454C9.62198 0.895821 9.20964 0.810235 8.10379 0.795214C7.65599 0.789096 7.21484 0.789749 7.12346 0.796623Z" fill="#C7C8D3"/>
</svg>
