<svg width="15" height="15" viewBox="0 0 15 15" fill="none" xmlns="http://www.w3.org/2000/svg">
<path fill-rule="evenodd" clip-rule="evenodd" d="M7.04809 0.00889465C6.99966 0.0156994 6.83458 0.0352925 6.68124 0.0524805C4.21516 0.32869 1.95475 1.88866 0.840061 4.08361C-0.21802 6.16717 -0.204872 8.69398 0.87519 10.8207L1.04937 11.1636L0.521665 13.0788C0.231444 14.1321 -0.00331034 14.9966 3.53223e-05 15C0.00338099 15.0033 0.893914 14.7745 1.979 14.4915L3.95191 13.977L4.22364 14.1091C5.00409 14.4886 5.82096 14.7316 6.66656 14.8357C7.09428 14.8884 8.00122 14.8815 8.44211 14.8221C11.1908 14.4519 13.5096 12.6706 14.4981 10.1698C14.8572 9.26138 15.0011 8.47473 15 7.42735C14.9993 6.72994 14.9664 6.4049 14.8373 5.81414C14.5706 4.59506 13.9199 3.34219 13.0975 2.46431C12.9797 2.3386 12.8713 2.21391 12.8565 2.18719C12.8173 2.11633 12.401 1.74951 12.0959 1.51698C11.5297 1.08549 10.7879 0.678433 10.1296 0.438095C9.74495 0.297629 9.07477 0.128741 8.64755 0.0645942C8.35583 0.020803 7.24029 -0.0180605 7.04809 0.00889465ZM8.57418 1.30987C9.89125 1.53845 11.006 2.11492 11.951 3.05612C12.8654 3.96688 13.4361 5.06966 13.6818 6.40076C13.756 6.80271 13.772 7.7475 13.7123 8.20069C13.5105 9.73314 12.7853 11.0804 11.6318 12.0656C10.5124 13.0218 9.18153 13.5436 7.73612 13.5931C6.55877 13.6334 5.5062 13.3736 4.44801 12.7813L4.1356 12.6065L2.97254 12.9081C2.3155 13.0785 1.80966 13.1961 1.80989 13.1784C1.81013 13.1611 1.94824 12.6482 2.11678 12.0386L2.42326 10.9303L2.29619 10.7334C1.02422 8.76182 0.997865 6.26593 2.2274 4.22C2.71798 3.40366 3.48575 2.62633 4.28938 2.13231C4.56549 1.9626 5.20401 1.65991 5.48948 1.56341C5.92952 1.41467 6.4989 1.29259 6.98939 1.24176C7.29326 1.21029 8.23315 1.25068 8.57418 1.30987ZM4.61221 4.03595C4.37296 4.14544 4.01835 4.6182 3.8543 5.04643C3.76576 5.2775 3.76241 5.30267 3.76194 5.74082C3.7615 6.17987 3.76479 6.20498 3.85829 6.47409C4.03626 6.98618 4.31911 7.4587 4.81392 8.07049C6.09052 9.64888 6.92242 10.2495 8.6182 10.8172C9.42348 11.0867 10.0815 11.0169 10.7005 10.5961C11.0915 10.3303 11.2435 10.0708 11.316 9.54531C11.356 9.25543 11.3318 9.15307 11.2035 9.06815C11.145 9.02947 11.0511 8.98867 10.9949 8.97743C10.9387 8.96623 10.6615 8.84568 10.3791 8.70952C9.73694 8.40005 9.61312 8.35127 9.46967 8.35127C9.35827 8.35127 9.34653 8.36163 9.07896 8.69591C8.616 9.27438 8.58504 9.30421 8.45103 9.30069C8.29637 9.29664 7.66612 8.99439 7.29948 8.74842C6.68103 8.33353 6.09102 7.70197 5.74292 7.08224C5.62363 6.86985 5.63313 6.82729 5.85844 6.56566C6.0698 6.32022 6.2598 6.0316 6.28478 5.91806C6.31157 5.79613 5.65312 4.21247 5.51903 4.07628L5.42515 3.98096L5.07737 3.9816C4.80356 3.9821 4.70462 3.99366 4.61221 4.03595Z" fill="#C7C8D3"/>
</svg>
