<svg width="15" height="11" viewBox="0 0 15 11" fill="none" xmlns="http://www.w3.org/2000/svg">
<path fill-rule="evenodd" clip-rule="evenodd" d="M5.9232 0.805329C3.39198 0.850042 1.90551 0.961558 1.44065 1.14151C1.01903 1.30475 0.662829 1.61119 0.453505 1.99074C0.181832 2.48337 0.0384865 3.5615 0.00494961 5.36444C-0.0218611 6.80427 0.0611676 8.11417 0.231668 8.94152C0.417684 9.84425 0.926932 10.3594 1.80768 10.536C2.60772 10.6963 4.73183 10.7912 7.51871 10.791C10.3642 10.7908 12.3943 10.7001 13.2437 10.5352C13.5211 10.4814 13.9164 10.2956 14.1234 10.1216C14.3388 9.94068 14.5585 9.62677 14.6498 9.36957C14.8991 8.66751 15.0526 6.62017 14.9833 4.92019C14.8894 2.61435 14.692 1.88978 14.0267 1.40983C13.7185 1.18751 13.5067 1.10634 13.0319 1.0286C12.4443 0.932375 11.0274 0.847419 9.53655 0.819011C7.78941 0.785744 7.16529 0.783359 5.9232 0.805329ZM7.94161 4.71707C8.9952 5.29555 9.85603 5.78179 9.85456 5.79765C9.85246 5.82054 6.05109 7.92801 6.01193 7.92801C6.00614 7.92801 6.00141 6.96891 6.00141 5.79667C6.00141 4.62443 6.00695 3.66532 6.01371 3.66532C6.0205 3.66532 6.88805 4.1386 7.94161 4.71707Z" fill="#C7C8D3"/>
</svg>
